<?xml version="1.0" encoding="utf-8"?>
<!-- Generator: Adobe Illustrator 22.1.0, SVG Export Plug-In . SVG Version: 6.00 Build 0)  -->
<svg version="1.1" id="Layer_1" xmlns="http://www.w3.org/2000/svg" xmlns:xlink="http://www.w3.org/1999/xlink" x="0px" y="0px"
	 viewBox="0 0 249.7 148" style="enable-background:new 0 0 249.7 148;" xml:space="preserve">
<style type="text/css">
	.st0{fill:url(#SVGID_1_);}
	.st1{fill:#FFFFFF;}
	.st2{fill:#1A4661;}
	.st3{fill:#0C293C;}
	.st4{fill:url(#SVGID_2_);}
</style>
<linearGradient id="SVGID_1_" gradientUnits="userSpaceOnUse" x1="13.9039" y1="212.1727" x2="25.2239" y2="189.2401" gradientTransform="matrix(1 0 0 -1 0 397.3333)">
	<stop  offset="1.538460e-02" style="stop-color:#84E1F3"/>
	<stop  offset="0.5308" style="stop-color:#58B4C7"/>
	<stop  offset="1" style="stop-color:#137386"/>
</linearGradient>
<path class="st0" d="M34.8,197.4c0,8.1-6.7,14.7-14.9,14.7s-14.9-6.6-14.9-14.7c0-8.1,6.7-14.7,14.9-14.7S34.8,189.3,34.8,197.4z"/>
<path class="st1" d="M36.6,197.4c0,9.1-7.5,16.5-16.7,16.5c-9.2,0-16.7-7.4-16.7-16.5c0-9.1,7.5-16.5,16.7-16.5
	C29.2,181,36.6,188.3,36.6,197.4z M20,212.1c8.2,0,14.9-6.6,14.9-14.7c0-8.1-6.7-14.7-14.9-14.7s-14.9,6.6-14.9,14.7
	C5.1,205.5,11.7,212.1,20,212.1z"/>
<path class="st2" d="M19.9,201.1l0.4,1.3l0.3,0.9l1,1.3v1.3l0.4,1.3l0.4,0.9l1.3-0.4l1.7-1.8v-2.7l0.9-1.3l0.9-1.3l0.4-0.9l-0.4-0.4
	l-0.9-0.4l-0.4-0.4h-0.4v-1.1l-0.4-0.7l0.4-0.9h0.9h0.4l1.3,0.4l0.4-0.4l-0.4-0.4V194l0.4-0.9h0.9l0.9,0.4l1.3,0.4l2.2-0.4l-0.7-2.2
	l-1.9-3.1l-3-2.7l-2.2-1.3l-1.7-0.4v0.9v0.4v0.9v0.9l-0.9,0.9h-0.9h-1.3l-0.4,0.4v0.9l-0.4,0.4l-0.4,0.9H19v0.4h1.3H22h1.3l1.3,0.4
	l0.4,0.9v1.3l-0.2,0.4l-1.1,0.4h-1.3l-1.7-0.4H19h-1.3h-1.3l-1.3,0.9l-0.4,1.3l-0.4,1.3l0.4,1.3l0.4,0.9l1.7,0.9h1.7L19.9,201.1z"/>
<path class="st2" d="M23.8,183.1l2.4,0.6l2.3,1.4l3.1,2.7l2,3.2l0.9,2.7l-2.8,0.6l-1.5-0.5l-0.8-0.4h-0.5l-0.3,0.6v1.1l0.6,0.6
	l-0.9,1l-1.5-0.5h-0.9l-0.2,0.4l0.4,0.6v0.7h0.2l0.5,0.5l0.9,0.4l0.7,0.7l-0.6,1.2l-1.7,2.6v2.7l-1.9,2l-1.8,0.6l-0.6-1.3l-0.5-1.4
	v-1.3l-0.7-0.9l-0.1,0l-0.8-2.5l-1-0.4h-1.8l-2-1l-0.5-1.1l-0.5-1.5l1-3l1.5-1.1h4.5l1.7,0.4h1.2l0.8-0.3l0.1-0.2v-1.1l-0.3-0.6
	l-1.1-0.4h-4.7v-1.3h1l0.3-0.7l0.4-0.4V188l0.7-0.7h2.2l0.6-0.6V183.1z M21,203.1l1.1,1.4v1.4l0.4,1.2l0.2,0.5l0.8-0.3l1.5-1.6v-2.6
	l1.8-2.8l0.3-0.6l-0.2-0.2l-0.9-0.4l-0.4-0.4h-0.7v-1.4l-0.5-0.8l0.7-1.4h1.7l0.9,0.3l-0.1-0.2v-1.6l0.6-1.2h1.3l0.9,0.5l1.2,0.4
	l1.6-0.3l-0.5-1.7l-1.8-3l-3-2.6l-2.1-1.3l-1.1-0.3v2.7l-1.1,1.2h-2.2l-0.2,0.2v0.9l-0.5,0.5l-0.3,0.6h3.1l1.5,0.5l0.6,1.1v1.5
	l-0.3,0.7l-1.3,0.5h-1.4l-1.7-0.4h-4.1l-1.1,0.7l-0.8,2.4l0.4,1.2l0.4,0.7l1.5,0.8h1.7l1.6,0.5L21,203.1z"/>
<path class="st2" d="M9.8,206.9l-0.9,0.4l-0.4-0.9l-1.3-2.2l-1.3-3.1l-0.4-3.1v-3.1l0.4-0.4l1.3,0.4l0.4,0.4l0.3,1.3v1.3l1.1,1.8
	l1.8,1.8l-0.4,1.8v2.2L9.8,206.9z"/>
<path class="st2" d="M14.2,210.9c1.2-1,4.3-2.3,7.1,0.9C21.3,212.2,15.6,212.6,14.2,210.9z"/>
<path class="st2" d="M7.1,191.6H6.2l1.3-2.2l1.3-1.5l1.3-1.6l1.3-0.9v0.4v0.4l0.4,1.3v0.4l-0.9,0.9l-1.3,0.9l-0.9,0.4L8,191.1
	L7.1,191.6z"/>
<path class="st3" d="M20,181.9c-3.1,0-6.1,0.9-8.6,2.6c-2.6,1.7-4.6,4.1-5.7,6.9c-1.2,2.8-1.5,5.9-0.9,8.9c0.6,3,2.1,5.8,4.3,7.9
	c2.2,2.2,4.9,3.6,8,4.2c3,0.6,6.1,0.3,9-0.9c2.8-1.2,5.3-3.2,7-5.7c1.7-2.5,2.6-5.5,2.6-8.6c0-4.1-1.6-8-4.6-10.9
	C28.1,183.6,24.1,181.9,20,181.9L20,181.9z M34,193.4c-0.8-0.2-1.6,0-2.2,0.2c-0.1,0-0.3,0.1-0.4,0.1c-0.5-0.5-1.1-0.8-1.8-0.8
	c-0.2,0-0.5,0-0.7,0.1c-0.2,0.1-0.4,0.2-0.5,0.4c-0.2,0.2-0.3,0.4-0.3,0.6c-0.1,0.2-0.1,0.5,0,0.7c0.1,0.2,0.1,0.4,0.2,0.6
	c0.1,0.1,0.1,0.3,0.2,0.4c0,0-0.1,0-0.1,0.1c-0.3,0-0.6,0-0.9-0.2c-0.2-0.1-0.3-0.2-0.5-0.3c-0.2,0-0.4,0-0.6,0
	c-0.2,0.1-0.4,0.2-0.6,0.4c-0.2,0.2-0.3,0.4-0.3,0.7c-0.2,0.8,0.3,1.3,0.7,1.7c0.1,0.1,0.1,0.1,0.2,0.2c0.4,0.4,0.9,0.7,1.5,0.9
	c0.1,0,0.1,0.1,0.2,0.1c0,0-0.1,0.1-0.1,0.1c-0.1,0.1-0.1,0.2-0.2,0.3c-0.1,0.2-0.2,0.4-0.3,0.5c-0.1,0.2-0.3,0.4-0.5,0.6
	c-0.4,0.5-0.8,1-1,1.6c-0.2,0.5-0.3,1.1-0.3,1.6c0,0.4-0.1,0.7-0.1,1.1c-0.1,0.3-0.3,0.7-0.5,0.9c-0.5,0.5-1,1-1.5,1.4
	c-0.4,0.3-0.9,0.5-1.2,0.2c-0.4-0.5-0.7-1.1-0.8-1.7c-0.1-0.3-0.1-0.6-0.1-1c0-0.5-0.1-1-0.2-1.4c-0.1-0.2-0.1-0.3-0.2-0.5
	c-0.1-0.2-0.2-0.4-0.2-0.6c0.1-0.8-0.1-1.5-0.6-1.9c-0.9-0.8-2.3-0.6-2.5-0.5c-0.6,0-1-0.2-1.6-0.5l-0.1-0.1c-1-0.4-1.3-1.2-1.2-2.6
	c0.1-0.7,0.4-1.3,0.8-1.8c0.5-0.5,1-0.9,1.7-1.1c1.2-0.3,2.4,0,3.8,0.4c0.3,0.1,1,0.2,2.3,0.2l0.1,0c0.7,0,1.3-0.1,1.6-0.5
	c0.2-0.2,0.4-0.5,0.4-0.8c0-0.3,0-0.6-0.1-1c-0.1-0.3-0.3-0.6-0.5-0.8c-0.8-0.8-2.2-0.9-3.2-0.9c-0.3,0-0.5,0-0.8,0
	c-0.6,0-1.2,0.1-1.7-0.1c0,0-0.1,0-0.1,0c0-0.2,0.1-0.3,0.5-0.5c0.2-0.1,0.4-0.3,0.6-0.5c0.5-0.5,0.5-1.3,0.5-1.6l0,0l0,0
	c0.1-0.5,1.4-0.6,2.3-0.6c0,0,0,0,0.1,0c0.2,0,0.4,0,0.6-0.1c0.2-0.1,0.3-0.2,0.4-0.4c0.4-0.6,0.2-1.5,0.1-1.8
	c-0.1-0.3-0.1-0.6,0-0.9c0.1-0.3,0.2-0.5,0.4-0.8c2.3,0.7,4.4,2,6.1,3.7C32.1,188.9,33.3,191.1,34,193.4L34,193.4z M11.5,185.7
	c0.1,0.3,0.1,0.7,0.1,0.9c0,0.2,0,0.3,0.1,0.4c0.1,0.4,0.1,0.8,0,1.2c-0.1,0.4-0.5,0.7-1.1,1c-0.1,0-0.2,0.1-0.3,0.1
	c-0.7,0.3-1.4,0.6-1.9,1.3c-0.5,0.5-1.2,1.1-1.6,1c0,0-0.1,0-0.1,0C7.7,189.2,9.4,187.2,11.5,185.7L11.5,185.7z M5.6,195.2
	c0.6,0,2,0.2,2,1.1c-0.1,0.7-0.1,1.4,0,2.1c0.1,1,0.9,1.6,1.5,2.2c0.6,0.5,1.1,0.9,1.2,1.6c0,0.4-0.1,0.7-0.2,1.1
	c-0.1,0.3-0.2,0.5-0.2,0.8l0,0.1c-0.1,0.5-0.2,0.9-0.1,1.4c0.1,0.5,0,1-0.2,1.2c-0.1,0.1-0.2,0.1-0.3,0.1c-0.1,0-0.2,0-0.3,0
	c-1.4-1.6-2.4-3.4-2.9-5.4C5.4,199.4,5.3,197.3,5.6,195.2L5.6,195.2z M14.5,210.9c1.2-0.6,4-1.5,6.5,1c-0.3,0-0.7,0-1,0
	C18.1,211.9,16.3,211.6,14.5,210.9L14.5,210.9z M22.2,211.8c-3.7-4.4-8.4-1.6-8.8-1.4c-1.4-0.7-2.6-1.6-3.7-2.7
	c0.2-0.1,0.4-0.2,0.5-0.3c0.6-0.6,0.5-1.7,0.4-2.1c0-0.3,0-0.7,0.1-1l0-0.1c0.1-0.2,0.1-0.4,0.2-0.6c0.2-0.5,0.3-1,0.3-1.5
	c-0.1-1-0.8-1.7-1.5-2.2c-0.6-0.5-1.1-0.9-1.2-1.6c-0.1-0.7-0.1-1.3,0-2c0,0,0,0,0-0.1c0-1.1-1.1-1.9-2.8-2c0.1-0.6,0.3-1.2,0.5-1.8
	c0.1,0.1,0.3,0.1,0.5,0.1c0,0,0,0,0.1,0c1,0,2.1-1.2,2.3-1.4c0.4-0.5,1-0.7,1.6-1c0.1,0,0.2-0.1,0.3-0.1c0.5-0.2,1.3-0.7,1.6-1.5
	c0.2-0.5,0.2-1.1,0-1.7c0-0.1,0-0.2,0-0.4c0-0.5-0.1-0.9-0.3-1.4c1.7-1,3.5-1.7,5.5-2c0,0.1,0,0.3,0,0.5l0,0.1c0,0.5,0,0.8-0.2,0.9
	c-0.2,0.1-0.4,0.2-0.6,0.3c-0.1,0-0.3,0.1-0.4,0.2c-0.6,0.2-1.2,0.6-1.7,1.1c-0.4,0.4-0.5,0.8-0.3,1.2c0.1,0.1,0.1,0.2,0.3,0.2
	c0.1,0,0.2,0,0.4,0c0.1,0,0.2-0.1,0.3-0.2c0.1-0.1,0.1-0.2,0-0.4c0,0,0.1-0.1,0.1-0.1c0.4-0.4,0.9-0.7,1.4-0.9
	c0.1,0,0.2-0.1,0.3-0.1c0.3-0.1,0.6-0.3,0.9-0.5c0.6-0.5,0.6-1.2,0.6-1.7l0-0.1c0-0.2,0-0.4,0-0.6c0.4,0,0.8-0.1,1.2-0.1
	c1.1,0,2.2,0.1,3.3,0.4c-0.2,0.3-0.3,0.7-0.4,1c-0.1,0.4,0,0.7,0.1,1.1c0,0,0,0,0,0c0.1,0.3,0.1,0.8,0,0.9c0,0-0.1,0.1-0.2,0.1
	c-0.4,0-3.1-0.2-3.3,1.4l0,0c0,0,0,0.1,0,0.1c0,0.6-0.2,0.9-0.3,1c-0.1,0.1-0.2,0.2-0.4,0.3c-0.4,0.3-1,0.6-0.9,1.4
	c0,0.4,0.3,0.7,0.8,0.9c0.7,0.2,1.4,0.1,2.1,0.1c0.3,0,0.5,0,0.7,0c1.3,0,2.1,0.2,2.5,0.6c0.1,0.1,0.2,0.3,0.3,0.5
	c0.1,0.2,0.1,0.4,0,0.6c0,0-0.1,0.4-1.1,0.4l-0.1,0c-1.5-0.1-2-0.2-2.1-0.2c-1.2-0.4-2.8-0.8-4.4-0.4c-0.9,0.2-1.6,0.7-2.2,1.4
	s-0.9,1.5-1.1,2.4c-0.2,1.8,0.4,2.9,1.7,3.6l0.1,0.1c0.7,0.3,1.3,0.6,2.2,0.5c0,0,0,0,0.1,0c0.3-0.1,1.3-0.1,1.7,0.3
	c0.3,0.2,0.4,0.6,0.3,1.1c0,0.4,0.1,0.8,0.3,1.1c0.1,0.1,0.1,0.2,0.2,0.3c0.1,0.4,0.1,0.8,0.1,1.2c0,0.4,0,0.8,0.1,1.1
	c0.1,0.8,0.5,1.6,1.1,2.2c0.1,0.1,0.3,0.3,0.5,0.3s0.4,0.1,0.6,0.1c0.5,0,1-0.2,1.4-0.5c0.6-0.4,1.2-1,1.7-1.5
	c0.3-0.4,0.6-0.8,0.7-1.3c0.1-0.4,0.2-0.8,0.2-1.3c0-0.5,0.1-0.9,0.2-1.4c0.2-0.5,0.5-0.9,0.9-1.4c0.2-0.2,0.3-0.4,0.5-0.7
	c0.1-0.2,0.2-0.4,0.4-0.6c0.1-0.1,0.1-0.2,0.2-0.3c0.2-0.2,0.4-0.6,0.2-1c0-0.1-0.1-0.2-0.2-0.3c-0.1-0.1-0.2-0.2-0.3-0.2
	c-0.1,0-0.2-0.1-0.4-0.1c-0.5-0.2-0.8-0.3-1.1-0.6c-0.1-0.1-0.1-0.2-0.2-0.2c-0.4-0.4-0.5-0.5-0.4-0.8c0-0.1,0-0.2,0.1-0.2
	c0-0.1,0.1-0.1,0.2-0.2c0,0,0.1,0,0.3,0.1c0.4,0.3,1.2,0.5,1.8,0.3c0.2,0,0.3-0.1,0.4-0.2c0.1-0.1,0.2-0.2,0.3-0.4
	c0.2-0.4,0-0.8-0.2-1.2c-0.1-0.1-0.1-0.3-0.2-0.4c0-0.1,0-0.2,0-0.2c0-0.1,0.1-0.2,0.1-0.2c0.1-0.1,0.1-0.1,0.2-0.1
	c0.1,0,0.2,0,0.2,0c0.4,0,1,0.2,1.2,0.6c0.3,0.4,0.8,0.3,1.4,0.1c0.5-0.2,1.3-0.4,1.7-0.2c0.1,0.1,0.3,0.2,0.4,0.3
	c0.1,0.1,0.2,0.3,0.2,0.5c0,0,0,0.1,0.1,0.1c0.6,3.8-0.4,7.7-2.7,10.8C29.5,209.1,26,211.2,22.2,211.8z"/>
<path class="st2" d="M30.9,201.8c-0.1,0.1-0.2,0.2-0.2,0.3c0,0.1,0,0.2,0,0.4c0,0.3-0.2,0.7-0.3,0.9c-0.2,0.3-0.4,0.6-0.7,0.8
	c-0.1,0-0.2,0.1-0.3,0.2c-0.1,0.1-0.1,0.2-0.1,0.3c0,0.1,0.1,0.2,0.2,0.3c0.1,0.1,0.2,0.1,0.3,0.1c0,0,0.1,0,0.1,0
	c0.6-0.1,1.2-1,1.4-1.3c0.2-0.3,0.7-1.3,0.4-1.9c0-0.1-0.1-0.1-0.1-0.1c0,0-0.1-0.1-0.2-0.1c-0.1,0-0.1,0-0.2,0
	C31,201.8,31,201.8,30.9,201.8z"/>
<path class="st3" d="M57.9,206.3c1.6,0,2.9-0.4,3.7-1.1c0.8-0.7,1.3-1.7,1.3-3c0-0.6-0.1-1.1-0.3-1.6c-0.2-0.5-0.5-0.9-1-1.2
	c-0.4-0.3-0.9-0.6-1.5-0.8c-0.6-0.2-1.3-0.3-2.1-0.3h-4.7v7.8H57.9z M53.3,189.9v7.6h4c0.9,0,1.6-0.1,2.2-0.3
	c0.6-0.2,1.1-0.5,1.5-0.9c0.4-0.4,0.7-0.8,0.9-1.2c0.2-0.5,0.3-0.9,0.3-1.4c0-1.3-0.4-2.2-1.2-2.8c-0.8-0.6-2-1-3.7-1H53.3z
	 M57.3,188.8c1.1,0,2,0.1,2.8,0.3c0.8,0.2,1.4,0.5,1.9,0.9c0.5,0.4,0.9,0.9,1.1,1.5c0.2,0.6,0.4,1.3,0.4,2c0,0.5-0.1,1-0.3,1.4
	c-0.2,0.5-0.4,0.9-0.7,1.3c-0.3,0.4-0.7,0.7-1.2,1c-0.5,0.3-1,0.5-1.6,0.6c1.5,0.2,2.6,0.7,3.4,1.5c0.8,0.8,1.2,1.7,1.2,3
	c0,0.8-0.1,1.5-0.4,2.1c-0.3,0.6-0.7,1.2-1.2,1.6s-1.2,0.8-2,1c-0.8,0.2-1.7,0.3-2.7,0.3h-6v-18.6H57.3z"/>
<path class="st3" d="M80.9,204.3c0.1,0,0.2,0,0.2,0.1l0.5,0.6c-0.4,0.4-0.8,0.8-1.3,1.1c-0.4,0.3-0.9,0.6-1.5,0.8
	c-0.5,0.2-1.1,0.4-1.8,0.5c-0.6,0.1-1.3,0.2-2.1,0.2c-1.3,0-2.5-0.2-3.5-0.7c-1.1-0.5-2-1.1-2.8-1.9c-0.8-0.8-1.4-1.8-1.8-3
	c-0.4-1.2-0.6-2.5-0.6-3.9c0-1.4,0.2-2.7,0.7-3.9c0.4-1.2,1.1-2.2,1.8-3c0.8-0.8,1.7-1.5,2.8-1.9c1.1-0.5,2.3-0.7,3.7-0.7
	c1.3,0,2.4,0.2,3.4,0.6c1,0.4,1.9,0.9,2.7,1.7l-0.4,0.6c-0.1,0.1-0.2,0.2-0.3,0.2c-0.1,0-0.3-0.1-0.5-0.3c-0.2-0.2-0.6-0.4-1-0.6
	c-0.4-0.2-0.9-0.5-1.6-0.6c-0.6-0.2-1.4-0.3-2.2-0.3c-1.1,0-2.1,0.2-3.1,0.6c-0.9,0.4-1.7,0.9-2.4,1.7c-0.7,0.7-1.2,1.6-1.6,2.6
	c-0.4,1-0.6,2.2-0.6,3.5c0,1.3,0.2,2.5,0.6,3.5c0.4,1,0.9,1.9,1.6,2.6c0.7,0.7,1.4,1.3,2.4,1.6c0.9,0.4,1.9,0.6,2.9,0.6
	c0.7,0,1.3,0,1.8-0.1c0.5-0.1,1-0.2,1.4-0.4c0.4-0.2,0.8-0.4,1.2-0.6c0.4-0.3,0.7-0.6,1.1-0.9c0,0,0.1-0.1,0.1-0.1
	C80.8,204.3,80.8,204.3,80.9,204.3z"/>
<path class="st3" d="M100.4,198.1c0,1.4-0.2,2.7-0.6,3.9c-0.4,1.2-1,2.2-1.8,3c-0.8,0.8-1.7,1.5-2.8,1.9c-1.1,0.4-2.3,0.7-3.6,0.7
	c-1.3,0-2.5-0.2-3.6-0.7c-1.1-0.5-2-1.1-2.8-1.9c-0.8-0.8-1.4-1.8-1.8-3c-0.4-1.2-0.6-2.5-0.6-3.9c0-1.4,0.2-2.7,0.6-3.9
	c0.4-1.2,1-2.2,1.8-3c0.8-0.8,1.7-1.5,2.8-1.9s2.3-0.7,3.6-0.7c1.3,0,2.5,0.2,3.6,0.7c1.1,0.4,2,1.1,2.8,1.9c0.8,0.8,1.4,1.8,1.8,3
	C100.1,195.4,100.4,196.7,100.4,198.1z M99,198.1c0-1.3-0.2-2.5-0.5-3.5c-0.4-1-0.9-1.9-1.5-2.6s-1.4-1.3-2.4-1.6
	c-0.9-0.4-1.9-0.6-3-0.6c-1.1,0-2.1,0.2-3,0.6c-0.9,0.4-1.7,0.9-2.4,1.6c-0.7,0.7-1.2,1.6-1.5,2.6c-0.4,1-0.5,2.2-0.5,3.5
	c0,1.3,0.2,2.5,0.5,3.5c0.4,1,0.9,1.9,1.5,2.6c0.7,0.7,1.5,1.3,2.4,1.6c0.9,0.4,1.9,0.6,3,0.6c1.1,0,2.1-0.2,3-0.6
	c0.9-0.4,1.7-0.9,2.4-1.6s1.2-1.6,1.5-2.6C98.8,200.6,99,199.4,99,198.1z"/>
<path class="st3" d="M102.6,199.1h6.1v1.1h-6.1V199.1z"/>
<path class="st3" d="M127.9,198.1c0,1.4-0.2,2.7-0.6,3.9c-0.4,1.1-1,2.1-1.8,2.9c-0.8,0.8-1.7,1.4-2.8,1.9c-1.1,0.4-2.3,0.6-3.6,0.6
	h-6.8v-18.6h6.8c1.3,0,2.5,0.2,3.6,0.6c1.1,0.4,2,1,2.8,1.9c0.8,0.8,1.4,1.8,1.8,2.9C127.7,195.4,127.9,196.7,127.9,198.1z
	 M126.5,198.1c0-1.3-0.2-2.5-0.5-3.5c-0.4-1-0.9-1.9-1.5-2.6s-1.4-1.2-2.4-1.6c-0.9-0.4-1.9-0.6-3-0.6h-5.4v16.4h5.4
	c1.1,0,2.1-0.2,3-0.6c0.9-0.4,1.7-0.9,2.4-1.6s1.2-1.6,1.5-2.6C126.3,200.6,126.5,199.4,126.5,198.1z"/>
<path class="st3" d="M149.5,188.8v18.6h-1.2v-15.8c0-0.2,0-0.5,0-0.7l-7.3,13c-0.1,0.2-0.3,0.3-0.5,0.3h-0.2c-0.2,0-0.4-0.1-0.5-0.3
	l-7.5-13c0,0.3,0,0.5,0,0.7v15.8h-1.2v-18.6h0.9c0.1,0,0.2,0,0.3,0c0.1,0,0.1,0.1,0.2,0.2l7.5,12.9c0.1,0.2,0.2,0.5,0.3,0.8
	c0.1-0.1,0.1-0.3,0.2-0.4c0.1-0.1,0.1-0.3,0.2-0.4l7.3-12.9c0.1-0.1,0.1-0.2,0.2-0.2c0.1,0,0.2,0,0.3,0H149.5z"/>
<path class="st3" d="M170.5,198.1c0,1.4-0.2,2.7-0.6,3.9c-0.4,1.2-1,2.2-1.8,3c-0.8,0.8-1.7,1.5-2.8,1.9c-1.1,0.4-2.3,0.7-3.6,0.7
	s-2.5-0.2-3.6-0.7c-1.1-0.5-2-1.1-2.8-1.9c-0.8-0.8-1.4-1.8-1.8-3c-0.4-1.2-0.6-2.5-0.6-3.9c0-1.4,0.2-2.7,0.6-3.9
	c0.4-1.2,1-2.2,1.8-3c0.8-0.8,1.7-1.5,2.8-1.9c1.1-0.5,2.3-0.7,3.6-0.7s2.5,0.2,3.6,0.7c1.1,0.4,2,1.1,2.8,1.9
	c0.8,0.8,1.4,1.8,1.8,3C170.2,195.4,170.5,196.7,170.5,198.1z M169.1,198.1c0-1.3-0.2-2.5-0.5-3.5c-0.4-1-0.9-1.9-1.5-2.6
	c-0.7-0.7-1.4-1.3-2.4-1.6c-0.9-0.4-1.9-0.6-3-0.6c-1.1,0-2.1,0.2-3,0.6c-0.9,0.4-1.7,0.9-2.4,1.6c-0.7,0.7-1.2,1.6-1.5,2.6
	c-0.4,1-0.5,2.2-0.5,3.5c0,1.3,0.2,2.5,0.5,3.5c0.4,1,0.9,1.9,1.5,2.6c0.7,0.7,1.5,1.3,2.4,1.6c0.9,0.4,1.9,0.6,3,0.6
	c1.1,0,2.1-0.2,3-0.6c0.9-0.4,1.7-0.9,2.4-1.6c0.7-0.7,1.2-1.6,1.5-2.6C168.9,200.6,169.1,199.4,169.1,198.1z"/>
<rect y="1" class="st3" width="249.7" height="147"/>
<rect class="st3" width="249.7" height="152.7"/>
<g>
	
		<linearGradient id="SVGID_2_" gradientUnits="userSpaceOnUse" x1="49.0549" y1="333.9166" x2="60.3749" y2="310.984" gradientTransform="matrix(1 0 0 -1 0 397.3333)">
		<stop  offset="1.538460e-02" style="stop-color:#84E1F3"/>
		<stop  offset="0.5308" style="stop-color:#58B4C7"/>
		<stop  offset="1" style="stop-color:#137386"/>
	</linearGradient>
	<path class="st4" d="M70,75.7c0,8.1-6.7,14.7-14.9,14.7s-14.9-6.6-14.9-14.7S46.9,61,55.1,61S70,67.6,70,75.7z"/>
	<path class="st1" d="M71.8,75.7c0,9.1-7.5,16.5-16.7,16.5c-9.2,0-16.7-7.4-16.7-16.5c0-9.1,7.5-16.5,16.7-16.5
		C64.3,59.2,71.8,66.6,71.8,75.7z M55.1,90.4c8.2,0,14.9-6.6,14.9-14.7C70,67.6,63.3,61,55.1,61s-14.9,6.6-14.9,14.7
		C40.2,83.8,46.9,90.4,55.1,90.4z"/>
	<path class="st2" d="M55,79.4l0.4,1.3l0.3,0.9l1,1.3v1.3l0.4,1.3l0.4,0.9l1.3-0.4l1.7-1.8v-2.7l0.9-1.3l0.9-1.3l0.4-0.9l-0.4-0.4
		l-0.9-0.4l-0.4-0.4h-0.4v-1.1l-0.4-0.7l0.4-0.9h0.9H62l1.3,0.4l0.4-0.4l-0.4-0.4v-1.3l0.4-0.9h0.9l0.9,0.4l1.3,0.4l2.2-0.4
		l-0.7-2.2l-1.9-3.1l-3-2.7l-2.2-1.3l-1.7-0.4v0.9v0.4v0.9v0.9L58.5,66h-0.9h-1.3l-0.4,0.4v0.9l-0.4,0.4L55,68.6h-0.9v0.4h1.3h1.7
		h1.3l1.3,0.4l0.4,0.9v1.3L60,72.2l-1.1,0.4h-1.3l-1.7-0.4h-1.7h-1.3h-1.3l-1.3,0.9l-0.4,1.3l-0.4,1.3l0.4,1.3l0.4,0.9l1.7,0.9h1.7
		L55,79.4z"/>
	<path class="st2" d="M58.9,61.4l2.4,0.6l2.3,1.4l3.1,2.7l2,3.2l0.9,2.7l-2.8,0.6l-1.5-0.5l-0.8-0.4H64l-0.3,0.6v1.1l0.6,0.6l-0.9,1
		l-1.5-0.5H61l-0.2,0.4l0.4,0.6v0.7h0.2l0.5,0.5l0.9,0.4l0.7,0.7l-0.6,1.2l-1.7,2.6v2.7l-1.9,2l-1.8,0.6l-0.6-1.3l-0.5-1.4v-1.3
		l-0.7-0.9l-0.1,0l-0.8-2.5l-1-0.4h-1.8l-2-1l-0.5-1.1l-0.5-1.5l1-3l1.5-1.1h4.5l1.7,0.4h1.2l0.8-0.3l0.1-0.2v-1.1l-0.3-0.6
		l-1.1-0.4h-4.7v-1.3h1l0.3-0.7l0.4-0.4v-0.9l0.7-0.7h2.2l0.6-0.6V61.4z M56.1,81.4l1.1,1.4v1.4l0.4,1.2l0.2,0.5l0.8-0.3l1.5-1.6
		v-2.6l1.8-2.8l0.3-0.6l-0.2-0.2l-0.9-0.4l-0.4-0.4h-0.7v-1.4l-0.5-0.8l0.7-1.4h1.7l0.9,0.3l-0.1-0.2v-1.6l0.6-1.2h1.3l0.9,0.5
		l1.2,0.4l1.6-0.3l-0.5-1.7l-1.8-3l-3-2.6l-2.1-1.3l-1.1-0.3v2.7l-1.1,1.2h-2.2l-0.2,0.2v0.9L55.8,68l-0.3,0.6h3.1l1.5,0.5l0.6,1.1
		v1.5l-0.3,0.7L59,73.1h-1.4l-1.7-0.4h-4.1l-1.1,0.7l-0.8,2.4l0.4,1.2l0.4,0.7l1.5,0.8h1.7l1.6,0.5L56.1,81.4z"/>
	<path class="st2" d="M44.9,85.2L44,85.6l-0.4-0.9l-1.3-2.2l-1.3-3.1l-0.4-3.1v-3.1l0.4-0.4l1.3,0.4l0.4,0.4l0.3,1.3v1.3l1.1,1.8
		l1.8,1.8l-0.4,1.8v2.2L44.9,85.2z"/>
	<path class="st2" d="M49.4,89.1c1.2-1,4.3-2.3,7.1,0.9C56.5,90.5,50.7,90.9,49.4,89.1z"/>
	<path class="st2" d="M42.3,69.8h-0.9l1.3-2.2l1.3-1.5l1.3-1.6l1.3-0.9v0.4v0.4l0.4,1.3v0.4l-0.9,0.9l-1.3,0.9L44,68.5l-0.9,0.9
		L42.3,69.8z"/>
	<path class="st3" d="M55.2,60.2c-3.1,0-6.1,0.9-8.6,2.6c-2.6,1.7-4.6,4.1-5.7,6.9c-1.2,2.8-1.5,5.9-0.9,8.9c0.6,3,2.1,5.8,4.3,7.9
		c2.2,2.2,4.9,3.6,8,4.2c3,0.6,6.1,0.3,9-0.9c2.8-1.2,5.3-3.2,7-5.7c1.7-2.5,2.6-5.5,2.6-8.6c0-4.1-1.6-8-4.6-10.9
		C63.2,61.8,59.3,60.2,55.2,60.2L55.2,60.2z M69.2,71.6c-0.8-0.2-1.6,0-2.2,0.2c-0.1,0-0.3,0.1-0.4,0.1c-0.5-0.5-1.1-0.8-1.8-0.8
		c-0.2,0-0.5,0-0.7,0.1c-0.2,0.1-0.4,0.2-0.5,0.4c-0.2,0.2-0.3,0.4-0.3,0.6s-0.1,0.5,0,0.7c0.1,0.2,0.1,0.4,0.2,0.6
		c0.1,0.1,0.1,0.3,0.2,0.4c0,0-0.1,0-0.1,0.1c-0.3,0-0.6,0-0.9-0.2c-0.2-0.1-0.3-0.2-0.5-0.3c-0.2,0-0.4,0-0.6,0
		c-0.2,0.1-0.4,0.2-0.6,0.4c-0.2,0.2-0.3,0.4-0.3,0.7c-0.2,0.8,0.3,1.3,0.7,1.7c0.1,0.1,0.1,0.1,0.2,0.2c0.4,0.4,0.9,0.7,1.5,0.9
		c0.1,0,0.1,0.1,0.2,0.1c0,0-0.1,0.1-0.1,0.1c-0.1,0.1-0.1,0.2-0.2,0.3c-0.1,0.2-0.2,0.4-0.3,0.5c-0.1,0.2-0.3,0.4-0.5,0.6
		c-0.4,0.5-0.8,1-1,1.6c-0.2,0.5-0.3,1.1-0.3,1.6c0,0.4-0.1,0.7-0.1,1.1c-0.1,0.3-0.3,0.7-0.5,0.9c-0.5,0.5-1,1-1.5,1.4
		c-0.4,0.3-0.9,0.5-1.2,0.2c-0.4-0.5-0.7-1.1-0.8-1.7c-0.1-0.3-0.1-0.6-0.1-1c0-0.5-0.1-1-0.2-1.4c-0.1-0.2-0.1-0.3-0.2-0.5
		c-0.1-0.2-0.2-0.4-0.2-0.6c0.1-0.8-0.1-1.5-0.6-1.9c-0.9-0.8-2.3-0.6-2.5-0.5c-0.6,0-1-0.2-1.6-0.5l-0.1-0.1
		c-1-0.4-1.3-1.2-1.2-2.6c0.1-0.7,0.4-1.3,0.8-1.8c0.5-0.5,1-0.9,1.7-1.1c1.2-0.3,2.4,0,3.8,0.4c0.3,0.1,1,0.2,2.3,0.2l0.1,0
		c0.7,0,1.3-0.1,1.6-0.5c0.2-0.2,0.4-0.5,0.4-0.8c0-0.3,0-0.6-0.1-1c-0.1-0.3-0.3-0.6-0.5-0.8c-0.8-0.8-2.2-0.9-3.2-0.9
		c-0.3,0-0.5,0-0.8,0c-0.6,0-1.2,0.1-1.7-0.1c0,0-0.1,0-0.1,0c0-0.2,0.1-0.3,0.5-0.5c0.2-0.1,0.4-0.3,0.6-0.5
		c0.5-0.5,0.5-1.3,0.5-1.6l0,0l0,0c0.1-0.5,1.4-0.6,2.3-0.6c0,0,0,0,0.1,0c0.2,0,0.4,0,0.6-0.1c0.2-0.1,0.3-0.2,0.4-0.4
		c0.4-0.6,0.2-1.5,0.1-1.8c-0.1-0.3-0.1-0.6,0-0.9c0.1-0.3,0.2-0.5,0.4-0.8c2.3,0.7,4.4,2,6.1,3.7C67.2,67.2,68.5,69.3,69.2,71.6
		L69.2,71.6z M46.6,63.9c0.1,0.3,0.1,0.7,0.1,0.9c0,0.2,0,0.3,0.1,0.4c0.1,0.4,0.1,0.8,0,1.2c-0.1,0.4-0.5,0.7-1.1,1
		c-0.1,0-0.2,0.1-0.3,0.1c-0.7,0.3-1.4,0.6-1.9,1.3c-0.5,0.5-1.2,1.1-1.6,1c0,0-0.1,0-0.1,0C42.9,67.5,44.5,65.4,46.6,63.9
		L46.6,63.9z M40.7,73.5c0.6,0,2,0.2,2,1.1c-0.1,0.7-0.1,1.4,0,2.1c0.1,1,0.9,1.6,1.5,2.2c0.6,0.5,1.1,0.9,1.2,1.6
		c0,0.4-0.1,0.7-0.2,1.1c-0.1,0.3-0.2,0.5-0.2,0.8l0,0.1c-0.1,0.5-0.2,0.9-0.1,1.4c0.1,0.5,0,1-0.2,1.2c-0.1,0.1-0.2,0.1-0.3,0.1
		s-0.2,0-0.3,0c-1.4-1.6-2.4-3.4-2.9-5.4C40.6,77.7,40.4,75.6,40.7,73.5L40.7,73.5z M49.7,89.1c1.2-0.6,4-1.5,6.5,1
		c-0.3,0-0.7,0-1,0C53.3,90.2,51.4,89.8,49.7,89.1L49.7,89.1z M57.4,90c-3.7-4.4-8.4-1.6-8.8-1.4c-1.4-0.7-2.6-1.6-3.7-2.7
		c0.2-0.1,0.4-0.2,0.5-0.3c0.6-0.6,0.5-1.7,0.4-2.1c0-0.3,0-0.7,0.1-1l0-0.1c0.1-0.2,0.1-0.4,0.2-0.6c0.2-0.5,0.3-1,0.3-1.5
		c-0.1-1-0.8-1.7-1.5-2.2c-0.6-0.5-1.1-0.9-1.2-1.6c-0.1-0.7-0.1-1.3,0-2c0,0,0,0,0-0.1c0-1.1-1.1-1.9-2.8-2
		c0.1-0.6,0.3-1.2,0.5-1.8c0.1,0.1,0.3,0.1,0.5,0.1c0,0,0,0,0.1,0c1,0,2.1-1.2,2.3-1.4c0.4-0.5,1-0.7,1.6-1c0.1,0,0.2-0.1,0.3-0.1
		c0.5-0.2,1.3-0.7,1.6-1.5c0.2-0.5,0.2-1.1,0-1.7c0-0.1,0-0.2,0-0.4c0-0.5-0.1-0.9-0.3-1.4c1.7-1,3.5-1.7,5.5-2c0,0.1,0,0.3,0,0.5
		l0,0.1c0,0.5,0,0.8-0.2,0.9c-0.2,0.1-0.4,0.2-0.6,0.3c-0.1,0-0.3,0.1-0.4,0.2c-0.6,0.2-1.2,0.6-1.7,1.1c-0.4,0.4-0.5,0.8-0.3,1.2
		c0.1,0.1,0.1,0.2,0.3,0.2c0.1,0,0.2,0,0.4,0c0.1,0,0.2-0.1,0.3-0.2c0.1-0.1,0.1-0.2,0-0.4c0,0,0.1-0.1,0.1-0.1
		c0.4-0.4,0.9-0.7,1.4-0.9c0.1,0,0.2-0.1,0.3-0.1c0.3-0.1,0.6-0.3,0.9-0.5c0.6-0.5,0.6-1.2,0.6-1.7l0-0.1c0-0.2,0-0.4,0-0.6
		c0.4,0,0.8-0.1,1.2-0.1c1.1,0,2.2,0.1,3.3,0.4c-0.2,0.3-0.3,0.7-0.4,1c-0.1,0.4,0,0.7,0.1,1.1c0,0,0,0,0,0c0.1,0.3,0.1,0.8,0,0.9
		c0,0-0.1,0.1-0.2,0.1c-0.4,0-3.1-0.2-3.3,1.4l0,0c0,0,0,0.1,0,0.1c0,0.6-0.2,0.9-0.3,1c-0.1,0.1-0.2,0.2-0.4,0.3
		c-0.4,0.3-1,0.6-0.9,1.4c0,0.4,0.3,0.7,0.8,0.9c0.7,0.2,1.4,0.1,2.1,0.1c0.3,0,0.5,0,0.7,0c1.3,0,2.1,0.2,2.5,0.6
		c0.1,0.1,0.2,0.3,0.3,0.5c0.1,0.2,0.1,0.4,0,0.6c0,0-0.1,0.4-1.1,0.4l-0.1,0c-1.5-0.1-2-0.2-2.1-0.2c-1.2-0.4-2.8-0.8-4.4-0.4
		c-0.9,0.2-1.6,0.7-2.2,1.4s-0.9,1.5-1.1,2.4c-0.2,1.8,0.4,2.9,1.7,3.6l0.1,0.1c0.7,0.3,1.3,0.6,2.2,0.5c0,0,0,0,0.1,0
		c0.3-0.1,1.3-0.1,1.7,0.3c0.3,0.2,0.4,0.6,0.3,1.1c0,0.4,0.1,0.8,0.3,1.1c0.1,0.1,0.1,0.2,0.2,0.3c0.1,0.4,0.1,0.8,0.1,1.2
		c0,0.4,0,0.8,0.1,1.1c0.1,0.8,0.5,1.6,1.1,2.2c0.1,0.1,0.3,0.3,0.5,0.3s0.4,0.1,0.6,0.1c0.5,0,1-0.2,1.4-0.5c0.6-0.4,1.2-1,1.7-1.5
		c0.3-0.4,0.6-0.8,0.7-1.3c0.1-0.4,0.2-0.8,0.2-1.3c0-0.5,0.1-0.9,0.2-1.4c0.2-0.5,0.5-1,0.9-1.4c0.2-0.2,0.3-0.4,0.5-0.7
		c0.1-0.2,0.2-0.4,0.4-0.6c0.1-0.1,0.1-0.2,0.2-0.3c0.2-0.2,0.4-0.6,0.2-1c0-0.1-0.1-0.2-0.2-0.3c-0.1-0.1-0.2-0.2-0.3-0.2
		c-0.1,0-0.2-0.1-0.4-0.1c-0.5-0.2-0.8-0.3-1.1-0.6c-0.1-0.1-0.1-0.2-0.2-0.2c-0.4-0.4-0.5-0.5-0.4-0.8c0-0.1,0-0.2,0.1-0.2
		c0-0.1,0.1-0.1,0.2-0.2c0,0,0.1,0,0.3,0.1c0.4,0.3,1.2,0.5,1.8,0.3c0.2,0,0.3-0.1,0.4-0.2c0.1-0.1,0.2-0.2,0.3-0.4
		c0.2-0.4,0-0.8-0.2-1.2c-0.1-0.1-0.1-0.3-0.2-0.4c0-0.1,0-0.2,0-0.2c0-0.1,0.1-0.2,0.1-0.2c0.1-0.1,0.1-0.1,0.2-0.1
		c0.1,0,0.2,0,0.2,0c0.4,0,1,0.2,1.2,0.6c0.3,0.4,0.8,0.3,1.4,0.1c0.5-0.2,1.3-0.4,1.7-0.2c0.1,0.1,0.3,0.2,0.4,0.3
		c0.1,0.1,0.2,0.3,0.2,0.5c0,0,0,0.1,0.1,0.1c0.6,3.8-0.4,7.7-2.7,10.8C64.6,87.4,61.2,89.4,57.4,90z"/>
	<path class="st2" d="M66.1,80.1c-0.1,0.1-0.2,0.2-0.2,0.3c0,0.1,0,0.2,0,0.4c0,0.3-0.2,0.7-0.3,0.9c-0.2,0.3-0.4,0.6-0.7,0.8
		c-0.1,0-0.2,0.1-0.3,0.2c-0.1,0.1-0.1,0.2-0.1,0.3c0,0.1,0.1,0.2,0.2,0.3c0.1,0.1,0.2,0.1,0.3,0.1c0,0,0.1,0,0.1,0
		c0.6-0.1,1.2-1,1.4-1.3c0.2-0.3,0.7-1.3,0.4-1.9c0-0.1-0.1-0.1-0.1-0.1c0,0-0.1-0.1-0.2-0.1c-0.1,0-0.1,0-0.2,0
		C66.2,80,66.1,80,66.1,80.1z"/>
	<path class="st1" d="M93.1,84.6c1.6,0,2.9-0.4,3.7-1.1c0.8-0.7,1.3-1.7,1.3-3c0-0.6-0.1-1.1-0.3-1.6c-0.2-0.5-0.5-0.9-1-1.2
		c-0.4-0.3-0.9-0.6-1.5-0.8c-0.6-0.2-1.3-0.3-2.1-0.3h-4.7v7.8H93.1z M88.4,68.2v7.6h4c0.9,0,1.6-0.1,2.2-0.3
		c0.6-0.2,1.1-0.5,1.5-0.9c0.4-0.4,0.7-0.8,0.9-1.2c0.2-0.5,0.3-0.9,0.3-1.4c0-1.3-0.4-2.2-1.2-2.8c-0.8-0.6-2-1-3.7-1H88.4z
		 M92.4,67.1c1.1,0,2,0.1,2.8,0.3c0.8,0.2,1.4,0.5,1.9,0.9c0.5,0.4,0.9,0.9,1.1,1.5c0.2,0.6,0.4,1.3,0.4,2c0,0.5-0.1,1-0.3,1.4
		c-0.2,0.5-0.4,0.9-0.7,1.3c-0.3,0.4-0.7,0.7-1.2,1c-0.5,0.3-1,0.5-1.6,0.6c1.5,0.2,2.6,0.7,3.4,1.5c0.8,0.8,1.2,1.7,1.2,3
		c0,0.8-0.1,1.5-0.4,2.1c-0.3,0.6-0.7,1.2-1.2,1.6c-0.5,0.4-1.2,0.8-2,1c-0.8,0.2-1.7,0.3-2.7,0.3h-6V67.1H92.4z"/>
	<path class="st1" d="M116,82.6c0.1,0,0.2,0,0.2,0.1l0.5,0.6c-0.4,0.4-0.8,0.8-1.3,1.1c-0.4,0.3-0.9,0.6-1.5,0.8
		c-0.5,0.2-1.1,0.4-1.8,0.5c-0.6,0.1-1.3,0.2-2.1,0.2c-1.3,0-2.5-0.2-3.5-0.7c-1.1-0.5-2-1.1-2.8-1.9c-0.8-0.8-1.4-1.8-1.8-3
		c-0.4-1.2-0.6-2.5-0.6-3.9c0-1.4,0.2-2.7,0.7-3.9c0.4-1.2,1.1-2.2,1.8-3c0.8-0.8,1.7-1.5,2.8-1.9c1.1-0.5,2.3-0.7,3.7-0.7
		c1.3,0,2.4,0.2,3.4,0.6c1,0.4,1.9,0.9,2.7,1.7l-0.4,0.6c-0.1,0.1-0.2,0.2-0.3,0.2c-0.1,0-0.3-0.1-0.5-0.3c-0.2-0.2-0.6-0.4-1-0.6
		c-0.4-0.2-0.9-0.5-1.6-0.6c-0.6-0.2-1.4-0.3-2.2-0.3c-1.1,0-2.1,0.2-3.1,0.6c-0.9,0.4-1.7,0.9-2.4,1.7c-0.7,0.7-1.2,1.6-1.6,2.6
		c-0.4,1-0.6,2.2-0.6,3.5c0,1.3,0.2,2.5,0.6,3.5c0.4,1,0.9,1.9,1.6,2.6c0.7,0.7,1.4,1.3,2.4,1.6c0.9,0.4,1.9,0.6,2.9,0.6
		c0.7,0,1.3,0,1.8-0.1c0.5-0.1,1-0.2,1.4-0.4c0.4-0.2,0.8-0.4,1.2-0.6c0.4-0.3,0.7-0.6,1.1-0.9c0,0,0.1-0.1,0.1-0.1
		C115.9,82.6,116,82.6,116,82.6z"/>
	<path class="st1" d="M135.5,76.4c0,1.4-0.2,2.7-0.6,3.9c-0.4,1.2-1,2.2-1.8,3c-0.8,0.8-1.7,1.5-2.8,1.9c-1.1,0.4-2.3,0.7-3.6,0.7
		c-1.3,0-2.5-0.2-3.6-0.7c-1.1-0.5-2-1.1-2.8-1.9c-0.8-0.8-1.4-1.8-1.8-3c-0.4-1.2-0.6-2.5-0.6-3.9c0-1.4,0.2-2.7,0.6-3.9
		c0.4-1.2,1-2.2,1.8-3c0.8-0.8,1.7-1.5,2.8-1.9s2.3-0.7,3.6-0.7c1.3,0,2.5,0.2,3.6,0.7c1.1,0.4,2,1.1,2.8,1.9c0.8,0.8,1.4,1.8,1.8,3
		C135.3,73.7,135.5,75,135.5,76.4z M134.1,76.4c0-1.3-0.2-2.5-0.5-3.5c-0.4-1-0.9-1.9-1.5-2.6c-0.7-0.7-1.4-1.3-2.4-1.6
		c-0.9-0.4-1.9-0.6-3-0.6c-1.1,0-2.1,0.2-3,0.6c-0.9,0.4-1.7,0.9-2.4,1.6c-0.7,0.7-1.2,1.6-1.5,2.6c-0.4,1-0.5,2.2-0.5,3.5
		c0,1.3,0.2,2.5,0.5,3.5c0.4,1,0.9,1.9,1.5,2.6c0.7,0.7,1.5,1.3,2.4,1.6c0.9,0.4,1.9,0.6,3,0.6c1.1,0,2.1-0.2,3-0.6
		c0.9-0.4,1.7-0.9,2.4-1.6c0.7-0.7,1.2-1.6,1.5-2.6C133.9,78.9,134.1,77.7,134.1,76.4z"/>
	<path class="st1" d="M137.8,77.4h6.1v1.1h-6.1V77.4z"/>
	<path class="st1" d="M163.1,76.4c0,1.4-0.2,2.7-0.6,3.9c-0.4,1.1-1,2.1-1.8,2.9c-0.8,0.8-1.7,1.4-2.8,1.9c-1.1,0.4-2.3,0.6-3.6,0.6
		h-6.8V67.1h6.8c1.3,0,2.5,0.2,3.6,0.6c1.1,0.4,2,1,2.8,1.9c0.8,0.8,1.4,1.8,1.8,2.9C162.8,73.7,163.1,75,163.1,76.4z M161.7,76.4
		c0-1.3-0.2-2.5-0.5-3.5c-0.4-1-0.9-1.9-1.5-2.6s-1.4-1.2-2.4-1.6c-0.9-0.4-1.9-0.6-3-0.6h-5.4v16.4h5.4c1.1,0,2.1-0.2,3-0.6
		c0.9-0.4,1.7-0.9,2.4-1.6s1.2-1.6,1.5-2.6C161.5,78.8,161.7,77.7,161.7,76.4z"/>
	<path class="st1" d="M184.7,67.1v18.6h-1.2V69.8c0-0.2,0-0.5,0-0.7l-7.3,13c-0.1,0.2-0.3,0.3-0.5,0.3h-0.2c-0.2,0-0.4-0.1-0.5-0.3
		l-7.5-13c0,0.3,0,0.5,0,0.7v15.8h-1.2V67.1h0.9c0.1,0,0.2,0,0.3,0c0.1,0,0.1,0.1,0.2,0.2l7.5,12.9c0.1,0.2,0.2,0.5,0.3,0.8
		c0.1-0.1,0.1-0.3,0.2-0.4c0.1-0.1,0.1-0.3,0.2-0.4l7.3-12.9c0.1-0.1,0.1-0.2,0.2-0.2c0.1,0,0.2,0,0.3,0H184.7z"/>
	<path class="st1" d="M205.6,76.4c0,1.4-0.2,2.7-0.6,3.9c-0.4,1.2-1,2.2-1.8,3c-0.8,0.8-1.7,1.5-2.8,1.9c-1.1,0.4-2.3,0.7-3.6,0.7
		s-2.5-0.2-3.6-0.7c-1.1-0.5-2-1.1-2.8-1.9c-0.8-0.8-1.4-1.8-1.8-3c-0.4-1.2-0.6-2.5-0.6-3.9c0-1.4,0.2-2.7,0.6-3.9
		c0.4-1.2,1-2.2,1.8-3c0.8-0.8,1.7-1.5,2.8-1.9c1.1-0.5,2.3-0.7,3.6-0.7s2.5,0.2,3.6,0.7c1.1,0.4,2,1.1,2.8,1.9
		c0.8,0.8,1.4,1.8,1.8,3C205.4,73.7,205.6,75,205.6,76.4z M204.2,76.4c0-1.3-0.2-2.5-0.5-3.5c-0.4-1-0.9-1.9-1.5-2.6
		c-0.7-0.7-1.4-1.3-2.4-1.6c-0.9-0.4-1.9-0.6-3-0.6c-1.1,0-2.1,0.2-3,0.6c-0.9,0.4-1.7,0.9-2.4,1.6c-0.7,0.7-1.2,1.6-1.5,2.6
		c-0.4,1-0.5,2.2-0.5,3.5c0,1.3,0.2,2.5,0.5,3.5c0.4,1,0.9,1.9,1.5,2.6c0.7,0.7,1.5,1.3,2.4,1.6c0.9,0.4,1.9,0.6,3,0.6
		c1.1,0,2.1-0.2,3-0.6c0.9-0.4,1.7-0.9,2.4-1.6c0.7-0.7,1.2-1.6,1.5-2.6C204,78.9,204.2,77.7,204.2,76.4z"/>
</g>
</svg>
