<svg width="171" height="43" viewBox="0 0 171 43" fill="none" xmlns="http://www.w3.org/2000/svg">
<path d="M34.8447 20.7541C34.8447 28.8721 28.1787 35.4531 19.9558 35.4531C11.7329 35.4531 5.06689 28.8721 5.06689 20.7541C5.06689 12.6361 11.7329 6.05511 19.9558 6.05511C28.1787 6.05511 34.8447 12.6361 34.8447 20.7541Z" fill="#4CA6B8"/>
<path fill-rule="evenodd" clip-rule="evenodd" d="M36.6224 20.7541C36.6224 29.8414 29.1605 37.2082 19.9557 37.2082C10.751 37.2082 3.28906 29.8414 3.28906 20.7541C3.28906 11.6667 10.751 4.29999 19.9557 4.29999C29.1605 4.29999 36.6224 11.6667 36.6224 20.7541ZM19.9557 35.4531C28.1786 35.4531 34.8446 28.8721 34.8446 20.7541C34.8446 12.636 28.1786 6.05509 19.9557 6.05509C11.7328 6.05509 5.06684 12.636 5.06684 20.7541C5.06684 28.8721 11.7328 35.4531 19.9557 35.4531Z" fill="white"/>
<path d="M19.8715 24.4438L20.3061 25.784L20.5958 26.6775L21.6098 28.0178V29.358L22.0444 30.6983L22.479 31.5918L23.7827 31.1451L25.5209 29.358V26.6775L26.3901 25.3373L27.2592 23.997L27.6938 23.1035L27.2592 22.6567L26.3901 22.21L25.9555 21.7632H25.5209V20.7022L25.0864 19.9762L25.5209 19.0827H26.3901H26.8246L28.1283 19.5295L28.5629 19.0827L28.1283 18.636V17.2957L28.5629 16.4022H29.432L30.3012 16.849L31.6049 17.2957L33.7777 16.849L33.0715 14.6152L31.1703 11.4879L28.1283 8.8074L25.9555 7.46714L24.2172 7.02039V7.91389V8.36065V9.25415V10.1477L23.3481 11.0412H22.479H21.1753L20.7407 11.4879V12.3814L20.3061 12.8282L19.8715 13.7217H19.0024V14.1684H20.3061H22.0444H23.3481L24.6518 14.6152L25.0864 15.5087V16.849L24.8691 17.2957L23.7827 17.7425H22.479L20.7407 17.2957H19.0024H17.6987H16.395L15.0913 18.1892L14.6567 19.5295L14.2222 20.8697L14.6567 22.21L15.0913 23.1035L16.8296 23.997H18.5678L19.8715 24.4438Z" fill="#1A4661"/>
<path fill-rule="evenodd" clip-rule="evenodd" d="M23.7729 6.45276L26.1334 7.05944L28.3961 8.45512L31.5168 11.205L33.4801 14.4344L34.348 17.1799L31.5753 17.75L30.1249 17.253L29.3234 16.841H28.8426L28.5729 17.3956V18.4594L29.1792 19.0827L28.2518 20.0362L26.7498 19.5215H25.8007L25.5899 19.9548L25.9655 20.5822V21.3245H26.145L26.6602 21.8541L27.5293 22.3009L28.228 23.0191L27.6482 24.2111L25.9655 26.806V29.5346L24.0294 31.525L22.2501 32.1347L21.6306 30.8609L21.1655 29.4266V28.1636L20.449 27.2165L20.3175 27.2581L19.5161 24.7864L18.493 24.4358H16.7209L14.7548 23.4252L14.2429 22.3726L13.7556 20.8697L14.7141 17.9137L16.256 16.8569H20.7977L22.536 17.3037H23.6939L24.5419 16.955L24.642 16.7491V15.6086L24.3313 14.9698L23.2733 14.6072H18.5581V13.2829H19.592L19.9364 12.5749L20.2963 12.2049V11.3114L20.986 10.6024H23.1588L23.7729 9.97109V6.45276ZM20.9965 26.4738L22.0544 27.872V29.2895L22.4584 30.5357L22.708 31.0489L23.5362 30.7651L25.0766 29.1815V26.5491L26.8704 23.783L27.1598 23.1879L26.9893 23.0127L26.1202 22.5659L25.7662 22.202H25.0766V20.8222L24.583 19.9976L25.2414 18.6439H26.8997L27.8302 18.9628L27.684 18.8125V17.1958L28.2834 15.9634H29.5409L30.4777 16.445L31.6347 16.8414L33.2076 16.518L32.6632 14.796L30.8241 11.7709L27.8608 9.15968L25.7778 7.87484L24.6618 7.58801V10.3242L23.5376 11.4799H21.3647L21.1852 11.6645V12.558L20.6761 13.0814L20.3608 13.7297H23.4231L24.9725 14.2606L25.5309 15.4088V16.9488L25.1965 17.6364L23.8716 18.1812H22.4222L20.6839 17.7345H16.5343L15.4687 18.4648L14.6889 20.8697L15.0708 22.0474L15.428 22.7818L16.9385 23.5582H18.6429L20.2272 24.1012L20.9965 26.4738Z" fill="#1A4661"/>
<path d="M9.7777 30.2755L8.88881 30.7143L8.44436 29.8367L7.11103 27.6429L5.7777 24.5714L5.33325 21.5V18.4286L5.7777 17.9898L7.11103 18.4286L7.55547 18.8674L7.83325 20.1837V21.5L8.88881 23.2551L10.6666 25.0102L10.2221 26.7653V28.9592L9.7777 30.2755Z" fill="#1A4661"/>
<path d="M14.2222 34.2245C15.4074 33.2007 18.4888 31.9428 21.3333 35.102C21.3332 35.5407 15.5555 35.9797 14.2222 34.2245Z" fill="#1A4661"/>
<path d="M7.11106 14.9184H6.22217L7.5555 12.7245L8.88883 11.2436L10.2222 9.65306L11.5555 8.77551V9.21429V9.65306L11.9999 10.9694V11.4082L11.1111 12.2857L9.77772 13.1633L8.88883 13.602L7.99995 14.4796L7.11106 14.9184Z" fill="#1A4661"/>
<path d="M20.0001 5.26532C16.9235 5.26532 13.916 6.17321 11.3579 7.87417C8.79984 9.57513 6.80605 11.9928 5.62868 14.8214C4.45132 17.65 4.14327 20.7625 4.74348 23.7653C5.3437 26.7681 6.82522 29.5264 9.0007 31.6913C11.1762 33.8562 13.9479 35.3306 16.9654 35.9279C19.9829 36.5252 23.1106 36.2186 25.953 35.047C28.7954 33.8753 31.2248 31.8912 32.9341 29.3455C34.6434 26.7999 35.5557 23.807 35.5557 20.7453C35.551 16.6412 33.9107 12.7065 30.9944 9.80443C28.0782 6.90237 24.1243 5.26995 20.0001 5.26532V5.26532ZM34.0009 16.694C33.2449 16.4473 32.4158 16.7197 31.7919 16.9259C31.649 16.973 31.4674 17.033 31.348 17.0614C30.8576 16.5718 30.1987 16.2855 29.5045 16.2605C29.275 16.2467 29.0454 16.2868 28.8343 16.3774C28.6232 16.468 28.4364 16.6066 28.2889 16.7821C28.1385 16.9578 28.0315 17.1661 27.9765 17.3903C27.9215 17.6145 27.9201 17.8484 27.9723 18.0732C28.0254 18.2752 28.0992 18.4712 28.1926 18.6581C28.2553 18.7815 28.3057 18.9108 28.3433 19.0439C28.3043 19.0668 28.2628 19.0851 28.2196 19.0986C27.9041 19.1353 27.5856 19.0627 27.3174 18.8932C27.1623 18.7679 26.9792 18.6815 26.7835 18.6415C26.5878 18.6015 26.3853 18.6089 26.1931 18.6632C25.9575 18.7539 25.7497 18.9041 25.5901 19.099C25.4305 19.2938 25.3247 19.5267 25.283 19.7746C25.1112 20.5704 25.5562 21.0428 25.9491 21.4596C26.0105 21.5247 26.0739 21.5919 26.1373 21.6627C26.5576 22.0777 27.0782 22.3781 27.649 22.5348C27.7233 22.5615 27.7976 22.5881 27.8714 22.6157C27.846 22.6599 27.8192 22.7034 27.8026 22.7304C27.7421 22.8283 27.6825 22.9289 27.6227 23.03C27.5168 23.2085 27.4074 23.3931 27.2963 23.5557C27.1553 23.7627 26.9982 23.9626 26.8323 24.1741C26.4112 24.6567 26.0716 25.2042 25.8268 25.7951C25.6595 26.3176 25.564 26.8603 25.5429 27.4083C25.5233 27.7796 25.4732 28.1486 25.3931 28.5117C25.279 28.8555 25.0914 29.1706 24.8432 29.4355C24.3884 29.9571 23.8681 30.4185 23.2951 30.8081C22.9267 31.0746 22.4176 31.3196 22.081 30.9715C21.6512 30.4805 21.3667 29.8804 21.2593 29.238C21.2028 28.9206 21.1741 28.5989 21.1734 28.2765C21.1794 27.7944 21.1164 27.3139 20.9863 26.8495C20.9269 26.6798 20.8538 26.5152 20.7677 26.3573C20.6546 26.191 20.5904 25.9964 20.5826 25.7956C20.6659 24.9533 20.4563 24.2995 19.9598 23.8524C19.0908 23.0697 17.6569 23.2811 17.4143 23.3237C16.843 23.3624 16.3695 23.1419 15.7746 22.8634L15.6256 22.7938C14.6704 22.3503 14.3035 21.5503 14.4359 20.2C14.5237 19.5182 14.8103 18.8769 15.2603 18.3555C15.7103 17.834 16.3041 17.4552 16.9681 17.2659C18.1945 16.9533 19.3808 17.259 20.8043 17.6908C21.1216 17.7873 21.8387 17.8589 23.1295 17.9228L23.2047 17.9266C23.9244 17.9635 24.4762 17.8115 24.8494 17.4745C25.094 17.2629 25.2478 16.9661 25.2792 16.6451C25.3184 16.3257 25.2883 16.0017 25.1909 15.6949C25.0936 15.3881 24.9312 15.1056 24.7148 14.8665C23.9142 14.0203 22.4978 13.9372 21.5007 13.9486C21.2406 13.9516 20.9666 13.9718 20.7017 13.9914C20.1046 14.0355 19.4872 14.0812 18.9989 13.935C18.9548 13.9235 18.9122 13.9067 18.8719 13.8852C18.8565 13.7235 18.9403 13.6321 19.3407 13.3729C19.5509 13.25 19.7425 13.0982 19.9099 12.9218C20.3628 12.4011 20.4103 11.5945 20.4257 11.3294L20.4269 11.3127L20.4283 11.3016C20.4893 10.8163 21.8318 10.6552 22.7371 10.7287C22.7566 10.7302 22.7765 10.7304 22.796 10.7304C22.9869 10.7416 23.1776 10.7055 23.351 10.6254C23.5245 10.5453 23.6753 10.4236 23.79 10.2714C24.2313 9.66631 23.9666 8.73625 23.889 8.50088C23.8064 8.219 23.7987 7.92061 23.8666 7.63487C23.9346 7.34914 24.0759 7.08585 24.2768 6.87074C26.5866 7.58183 28.6836 8.8511 30.3804 10.5652C32.0772 12.2793 33.3211 14.3849 34.0009 16.694V16.694ZM11.4678 8.98687C11.5356 9.27867 11.5851 9.71317 11.6076 9.91291C11.6264 10.0791 11.643 10.2223 11.6598 10.3197C11.7582 10.7087 11.7591 11.1158 11.6624 11.5053C11.5222 11.9025 11.2027 12.1922 10.5941 12.474C10.4934 12.5207 10.393 12.5659 10.2936 12.6107C9.62328 12.9128 8.93019 13.2252 8.35863 13.8909C7.90551 14.4182 7.19771 14.9592 6.79087 14.9401C6.74328 14.9389 6.6968 14.9256 6.65585 14.9014C7.70608 12.5412 9.36652 10.5003 11.4678 8.98686V8.98687ZM5.58014 18.5774C6.20941 18.6175 7.54129 18.8008 7.59292 19.6317C7.53359 20.3386 7.54273 21.0495 7.62021 21.7546C7.73794 22.7687 8.4747 23.3915 9.12459 23.941C9.71585 24.4408 10.2264 24.8724 10.2746 25.5104C10.2687 25.8779 10.1865 26.2401 10.0332 26.5744C9.93382 26.8269 9.85251 27.0862 9.78991 27.3501L9.77851 27.403C9.6514 27.8548 9.61813 28.3276 9.68072 28.7926C9.78041 29.3396 9.7187 29.8096 9.51956 30.0195C9.43785 30.0872 9.34194 30.1359 9.23887 30.1619C9.1358 30.1879 9.02818 30.1906 8.92392 30.1698C7.56222 28.5901 6.55867 26.7369 5.98164 24.7364C5.40462 22.736 5.26767 20.6352 5.58014 18.5774V18.5774ZM14.5313 34.195C15.7207 33.6222 18.5217 32.7169 21.0325 35.2174C20.6911 35.2413 20.3476 35.2578 20.0001 35.2578C18.1253 35.2587 16.2681 34.8978 14.5313 34.195V34.195ZM22.2295 35.0883C18.4949 30.6587 13.7954 33.4693 13.4333 33.697C12.0609 33.0057 10.8064 32.1036 9.71585 31.0241C9.90871 30.9489 10.0828 30.8329 10.2262 30.6841C10.8227 30.0559 10.7123 29.0312 10.6373 28.62C10.6014 28.2791 10.6326 27.9346 10.7291 27.6056L10.7408 27.5521C10.7943 27.3325 10.863 27.1168 10.9463 26.9066C11.1518 26.4444 11.2534 25.9431 11.244 25.4378C11.1656 24.3968 10.4158 23.763 9.75407 23.2036C9.16685 22.7073 8.65983 22.2785 8.58626 21.6439C8.5148 20.9914 8.50748 20.3335 8.56442 19.6796C8.56597 19.6613 8.56644 19.643 8.56585 19.6248C8.52942 18.4916 7.48824 17.7552 5.76114 17.6199C5.89694 17.0025 6.07347 16.3947 6.28959 15.8004C6.43657 15.8652 6.59465 15.9013 6.75528 15.9069C6.77237 15.9076 6.78923 15.9078 6.80633 15.9078C7.85047 15.9078 8.8958 14.7543 9.09755 14.5195C9.5286 14.0176 10.0691 13.7741 10.6947 13.492C10.7973 13.4459 10.9008 13.3992 11.0045 13.351C11.5364 13.1047 12.2784 12.6786 12.5796 11.8262C12.7366 11.2821 12.7498 10.7068 12.6181 10.1561C12.6036 10.0721 12.5901 9.94848 12.5739 9.80511C12.5424 9.33583 12.4523 8.87229 12.3055 8.42521C13.9751 7.38637 15.84 6.69722 17.7862 6.39986C17.8093 6.54899 17.818 6.69997 17.8122 6.85075L17.812 6.93637C17.8148 7.39166 17.8008 7.70286 17.5867 7.87399C17.3899 8.00795 17.1737 8.11122 16.9456 8.18023C16.8122 8.22925 16.6795 8.27826 16.5523 8.33459C15.9182 8.58073 15.3335 8.93775 14.8257 9.38878C14.4275 9.78218 14.3133 10.1718 14.4863 10.5467C14.5376 10.6579 14.6294 10.7456 14.7432 10.7922C14.8569 10.8387 14.9842 10.8406 15.0993 10.7975C15.2144 10.7544 15.3088 10.6695 15.3635 10.5599C15.4182 10.4502 15.4291 10.3241 15.394 10.2068C15.4289 10.1596 15.468 10.1156 15.5108 10.0753C15.9368 9.70988 16.4228 9.42005 16.9475 9.21848C17.0557 9.17065 17.1687 9.12954 17.2822 9.08786C17.6097 8.98554 17.9181 8.83037 18.1951 8.62856C18.792 8.15166 18.7875 7.44564 18.7842 6.92965L18.7844 6.85784C18.7893 6.66787 18.7783 6.47783 18.7515 6.28968C19.1635 6.2547 19.5792 6.23282 20.0001 6.23282C21.098 6.2336 22.1922 6.3579 23.2619 6.60335C23.064 6.92013 22.934 7.27422 22.8801 7.64338C22.8262 8.01255 22.8496 8.38881 22.9489 8.74854C22.9522 8.762 22.9564 8.77641 22.9607 8.78952C23.0671 9.10415 23.1105 9.55684 23.0032 9.70329C22.9742 9.74273 22.9054 9.76281 22.7986 9.76293C22.3972 9.73186 19.665 9.5788 19.4637 11.1816L19.4656 11.1818C19.4604 11.212 19.4569 11.2424 19.4552 11.273C19.4191 11.8875 19.2828 12.1645 19.1751 12.2886C19.0647 12.3936 18.9424 12.4854 18.8105 12.562C18.4186 12.8157 17.8264 13.1992 17.9047 13.9825C17.9482 14.4169 18.2221 14.7125 18.7186 14.8614C19.3797 15.0593 20.1207 15.0046 20.7739 14.9563C21.0353 14.9369 21.2821 14.9186 21.5116 14.9161C22.7818 14.9011 23.6028 15.1025 24.0072 15.5299C24.1296 15.6716 24.2199 15.8377 24.2721 16.0171C24.3244 16.1965 24.3373 16.385 24.3101 16.5698C24.3037 16.615 24.2204 17.0104 23.255 16.9603L23.1779 16.9565C21.6588 16.8813 21.2168 16.8046 21.0882 16.7655C19.8523 16.3906 18.3137 15.9239 16.727 16.3286C15.8684 16.5652 15.1 17.0508 14.5197 17.7235C13.9394 18.3962 13.5735 19.2255 13.4685 20.1059C13.2948 21.8783 13.8659 23.0442 15.2143 23.6705L15.3607 23.7389C16.0358 24.0549 16.6736 24.3534 17.5157 24.2864C17.5343 24.2849 17.5528 24.2823 17.571 24.2787C17.8953 24.2158 18.8392 24.1457 19.3092 24.5713C19.567 24.8048 19.6671 25.1743 19.6152 25.7008C19.5977 26.0871 19.6978 26.4696 19.9024 26.7983C19.9643 26.9105 20.0175 27.0273 20.0614 27.1477C20.1612 27.5266 20.2084 27.9173 20.2017 28.3089C20.2035 28.6882 20.2392 29.0666 20.3085 29.4396C20.4521 30.2589 20.8235 31.0219 21.3804 31.6421C21.5198 31.7914 21.6889 31.9103 21.8769 31.9912C22.0649 32.0721 22.2677 32.1132 22.4725 32.112C22.981 32.0886 23.4691 31.906 23.8672 31.5904C24.5105 31.1514 25.0934 30.6307 25.6011 30.0415C25.9386 29.6689 26.1896 29.2271 26.3362 28.7472C26.4299 28.3327 26.4887 27.9112 26.5119 27.487C26.5279 27.0244 26.6051 26.5659 26.7414 26.1233C26.9538 25.6301 27.2429 25.1733 27.5983 24.7698C27.767 24.555 27.9415 24.3328 28.1007 24.0992C28.2292 23.9112 28.3464 23.7131 28.4601 23.5214C28.5171 23.4253 28.5738 23.3295 28.631 23.2365C28.785 22.9869 28.9961 22.645 28.8688 22.2668C28.8247 22.1473 28.7539 22.0392 28.6617 21.9509C28.5694 21.8626 28.4582 21.7962 28.3364 21.757C28.2185 21.7108 28.0986 21.6677 27.979 21.6247C27.5256 21.462 27.1342 21.3214 26.8629 21.0188C26.7938 20.9417 26.725 20.8685 26.6583 20.7978C26.2679 20.3833 26.1751 20.2487 26.2335 19.9778C26.2444 19.8948 26.2748 19.8155 26.3221 19.7462C26.3694 19.677 26.4324 19.6198 26.5059 19.5792C26.5396 19.5683 26.595 19.5744 26.7708 19.6934C27.1463 19.9474 27.9412 20.215 28.5335 20.0144C28.687 19.9738 28.8299 19.9008 28.9526 19.8004C29.0752 19.6999 29.1747 19.5744 29.2444 19.4324C29.4255 19.0135 29.232 18.5931 29.0768 18.2554C29.0126 18.1284 28.9602 17.9958 28.9204 17.8594C28.9021 17.7805 28.9026 17.6984 28.922 17.6197C28.9413 17.5411 28.9789 17.468 29.0317 17.4064C29.0819 17.345 29.1463 17.2966 29.2193 17.2653C29.2924 17.2339 29.372 17.2207 29.4513 17.2266C29.881 17.2499 30.4281 17.4298 30.6823 17.7787C30.9958 18.2085 31.5313 18.0313 32.0981 17.8441C32.6331 17.6674 33.3659 17.4256 33.8235 17.6644C33.9623 17.7536 34.0814 17.8699 34.1737 18.0063C34.2659 18.1427 34.3294 18.2964 34.3602 18.4579C34.3741 18.5029 34.3946 18.5456 34.4211 18.5845C34.9952 22.3807 34.0347 26.2486 31.7498 29.3416C29.4649 32.4347 26.0417 34.501 22.2295 35.0883Z" fill="#0C293C"/>
<path d="M30.9139 25.1529C30.8033 25.2097 30.7188 25.3066 30.6779 25.4236C30.637 25.5406 30.6427 25.6687 30.6939 25.7817C30.662 26.1218 30.5425 26.4481 30.3471 26.729C30.1821 27.0553 29.9316 27.3313 29.6222 27.5279C29.5046 27.5525 29.4003 27.6196 29.3295 27.7163C29.2587 27.8129 29.2263 27.9322 29.2387 28.0512C29.251 28.1701 29.3072 28.2803 29.3964 28.3605C29.4856 28.4407 29.6015 28.4851 29.7216 28.4853C29.7554 28.4852 29.789 28.4817 29.8221 28.4749C30.4696 28.3395 31.0267 27.4837 31.1821 27.2246C31.3523 26.9405 31.8835 25.9664 31.5688 25.3605C31.5395 25.3041 31.4993 25.2539 31.4505 25.213C31.4018 25.172 31.3454 25.141 31.2846 25.1217C31.2237 25.1024 31.1597 25.0952 31.0961 25.1006C31.0325 25.1059 30.9706 25.1237 30.9139 25.1529Z" fill="#1A4661"/>
<path d="M57.9396 29.679C59.5678 29.679 60.7977 29.3289 61.6293 28.6286C62.4697 27.9195 62.8898 26.926 62.8898 25.6479C62.8898 25.0614 62.776 24.5362 62.5484 24.0722C62.3296 23.5995 62.0101 23.2013 61.5899 22.8774C61.1697 22.5447 60.6533 22.2909 60.0405 22.1158C59.4277 21.9407 58.7318 21.8532 57.9527 21.8532H53.2782V29.679H57.9396ZM53.2782 13.2395V20.8684H57.2962C58.1541 20.8684 58.885 20.759 59.489 20.5401C60.1018 20.3213 60.6007 20.0324 60.9859 19.6735C61.3798 19.3146 61.6687 18.9075 61.8525 18.4523C62.0364 17.9972 62.1283 17.5288 62.1283 17.0474C62.1283 15.7956 61.73 14.8502 60.9334 14.2112C60.1455 13.5634 58.9244 13.2395 57.2699 13.2395H53.2782ZM57.2699 12.1759C58.3291 12.1759 59.2483 12.281 60.0274 12.491C60.8065 12.7011 61.4499 13.0119 61.9576 13.4233C62.4653 13.826 62.8417 14.3206 63.0868 14.9071C63.3319 15.4936 63.4545 16.1589 63.4545 16.9029C63.4545 17.3931 63.3669 17.8658 63.1919 18.321C63.0255 18.7762 62.7804 19.1964 62.4565 19.5816C62.1414 19.9667 61.7475 20.3038 61.2748 20.5926C60.8108 20.8728 60.2769 21.0872 59.6728 21.236C61.1347 21.4461 62.2552 21.932 63.0343 22.6935C63.8221 23.4464 64.216 24.4399 64.216 25.6742C64.216 26.462 64.076 27.1711 63.7959 27.8013C63.5157 28.4316 63.1087 28.9656 62.5747 29.4033C62.0407 29.841 61.3842 30.178 60.6051 30.4143C59.826 30.6419 58.9419 30.7557 57.9527 30.7557H51.9258V12.1759H57.2699Z" fill="#0C293C"/>
<path d="M80.8745 27.6306C80.962 27.6306 81.0364 27.6613 81.0977 27.7226L81.6229 28.2872C81.2378 28.6986 80.8176 29.0706 80.3624 29.4033C79.9159 29.7272 79.4214 30.0073 78.8786 30.2436C78.3446 30.4712 77.7538 30.6463 77.106 30.7689C76.467 30.9002 75.7623 30.9658 74.992 30.9658C73.7052 30.9658 72.5234 30.7426 71.4467 30.2962C70.3787 29.841 69.4596 29.2019 68.6893 28.3791C67.9189 27.5475 67.3193 26.5452 66.8904 25.3722C66.4702 24.1992 66.2601 22.8949 66.2601 21.4593C66.2601 20.0499 66.4789 18.7631 66.9166 17.5989C67.3543 16.4346 67.9671 15.4367 68.7549 14.6051C69.5428 13.7647 70.4882 13.1169 71.5911 12.6617C72.6941 12.1978 73.9109 11.9658 75.2414 11.9658C76.5107 11.9658 77.6356 12.1628 78.616 12.5567C79.5964 12.9506 80.4893 13.5065 81.2947 14.2243L80.8876 14.8152C80.8176 14.9202 80.7082 14.9727 80.5593 14.9727C80.4543 14.9727 80.2836 14.8764 80.0473 14.6839C79.8109 14.4913 79.4826 14.2812 79.0625 14.0536C78.6423 13.8172 78.1171 13.6028 77.4868 13.4102C76.8653 13.2176 76.1168 13.1213 75.2414 13.1213C74.121 13.1213 73.0924 13.3139 72.1558 13.6991C71.2279 14.0842 70.4269 14.6357 69.7528 15.3535C69.0876 16.0713 68.5667 16.9467 68.1903 17.9796C67.8139 19.0126 67.6257 20.1725 67.6257 21.4593C67.6257 22.7723 67.8139 23.9453 68.1903 24.9783C68.5755 26.0112 69.1007 26.8866 69.766 27.6044C70.4313 28.3134 71.2147 28.8605 72.1164 29.2457C73.0267 29.6221 74.0072 29.8103 75.0576 29.8103C75.7229 29.8103 76.3138 29.7666 76.8303 29.679C77.3555 29.5915 77.8369 29.4602 78.2746 29.2851C78.7123 29.11 79.1194 28.8956 79.4958 28.6417C79.8722 28.3878 80.2442 28.0902 80.6119 27.7488C80.6556 27.7138 80.6994 27.6875 80.7432 27.67C80.7869 27.6438 80.8307 27.6306 80.8745 27.6306Z" fill="#0C293C"/>
<path d="M100.362 21.4593C100.362 22.8949 100.147 24.1992 99.7186 25.3722C99.2896 26.5364 98.6856 27.5344 97.9065 28.366C97.1274 29.1888 96.1908 29.8278 95.0966 30.283C94.0111 30.7295 92.8119 30.9527 91.4988 30.9527C90.1857 30.9527 88.9865 30.7295 87.901 30.283C86.8155 29.8278 85.8833 29.1888 85.1042 28.366C84.3251 27.5344 83.7211 26.5364 83.2922 25.3722C82.8632 24.1992 82.6488 22.8949 82.6488 21.4593C82.6488 20.0324 82.8632 18.7368 83.2922 17.5726C83.7211 16.3996 84.3251 15.4017 85.1042 14.5788C85.8833 13.7472 86.8155 13.1038 87.901 12.6486C88.9865 12.1934 90.1857 11.9658 91.4988 11.9658C92.8119 11.9658 94.0111 12.1934 95.0966 12.6486C96.1908 13.0951 97.1274 13.7341 97.9065 14.5657C98.6856 15.3973 99.2896 16.3996 99.7186 17.5726C100.147 18.7368 100.362 20.0324 100.362 21.4593ZM98.9701 21.4593C98.9701 20.1637 98.7907 18.9995 98.4318 17.9665C98.0729 16.9336 97.5651 16.0582 96.9086 15.3404C96.2521 14.6226 95.4642 14.0755 94.5451 13.6991C93.6259 13.3139 92.6105 13.1213 91.4988 13.1213C90.3958 13.1213 89.3848 13.3139 88.4656 13.6991C87.5465 14.0755 86.7543 14.6226 86.089 15.3404C85.4324 16.0582 84.9204 16.9336 84.5527 17.9665C84.1938 18.9995 84.0143 20.1637 84.0143 21.4593C84.0143 22.7636 84.1938 23.9322 84.5527 24.9651C84.9204 25.9893 85.4324 26.8603 86.089 27.5781C86.7543 28.2959 87.5465 28.843 88.4656 29.2194C89.3848 29.5959 90.3958 29.7841 91.4988 29.7841C92.6105 29.7841 93.6259 29.5959 94.5451 29.2194C95.4642 28.843 96.2521 28.2959 96.9086 27.5781C97.5651 26.8603 98.0729 25.9893 98.4318 24.9651C98.7907 23.9322 98.9701 22.7636 98.9701 21.4593Z" fill="#0C293C"/>
<path d="M102.647 22.4309H108.753V23.4945H102.647V22.4309Z" fill="#0C293C"/>
<path d="M127.9 21.4593C127.9 22.8949 127.686 24.186 127.257 25.3328C126.828 26.4795 126.224 27.4556 125.445 28.2609C124.666 29.0663 123.729 29.6834 122.635 30.1123C121.549 30.5413 120.35 30.7557 119.037 30.7557H112.249V12.1759H119.037C120.35 12.1759 121.549 12.3904 122.635 12.8193C123.729 13.2482 124.666 13.8654 125.445 14.6707C126.224 15.4761 126.828 16.4521 127.257 17.5989C127.686 18.7456 127.9 20.0324 127.9 21.4593ZM126.508 21.4593C126.508 20.1637 126.329 19.0082 125.97 17.9928C125.611 16.9773 125.104 16.1195 124.447 15.4192C123.79 14.7189 123.003 14.1849 122.083 13.8172C121.164 13.4496 120.149 13.2658 119.037 13.2658H113.601V29.6659H119.037C120.149 29.6659 121.164 29.4821 122.083 29.1144C123.003 28.7467 123.79 28.2128 124.447 27.5125C125.104 26.8122 125.611 25.9543 125.97 24.9389C126.329 23.9234 126.508 22.7636 126.508 21.4593Z" fill="#0C293C"/>
<path d="M149.507 12.1759V30.7557H148.339V14.9202C148.339 14.6926 148.352 14.4519 148.378 14.198L141.064 27.1842C140.942 27.4118 140.767 27.5256 140.539 27.5256H140.329C140.101 27.5256 139.926 27.4118 139.804 27.1842L132.293 14.1718C132.319 14.4344 132.332 14.6839 132.332 14.9202V30.7557H131.151V12.1759H132.083C132.205 12.1759 132.302 12.189 132.372 12.2153C132.442 12.2416 132.512 12.3116 132.582 12.4254L140.079 25.3459C140.211 25.591 140.325 25.8536 140.421 26.1338C140.473 25.9937 140.53 25.858 140.591 25.7267C140.653 25.5866 140.718 25.4553 140.788 25.3328L148.076 12.4254C148.146 12.3116 148.216 12.2416 148.286 12.2153C148.365 12.189 148.465 12.1759 148.588 12.1759H149.507Z" fill="#0C293C"/>
<path d="M170.456 21.4593C170.456 22.8949 170.241 24.1992 169.812 25.3722C169.384 26.5364 168.78 27.5344 168 28.366C167.221 29.1888 166.285 29.8278 165.19 30.283C164.105 30.7295 162.906 30.9527 161.593 30.9527C160.28 30.9527 159.08 30.7295 157.995 30.283C156.909 29.8278 155.977 29.1888 155.198 28.366C154.419 27.5344 153.815 26.5364 153.386 25.3722C152.957 24.1992 152.743 22.8949 152.743 21.4593C152.743 20.0324 152.957 18.7368 153.386 17.5726C153.815 16.3996 154.419 15.4017 155.198 14.5788C155.977 13.7472 156.909 13.1038 157.995 12.6486C159.08 12.1934 160.28 11.9658 161.593 11.9658C162.906 11.9658 164.105 12.1934 165.19 12.6486C166.285 13.0951 167.221 13.7341 168 14.5657C168.78 15.3973 169.384 16.3996 169.812 17.5726C170.241 18.7368 170.456 20.0324 170.456 21.4593ZM169.064 21.4593C169.064 20.1637 168.885 18.9995 168.526 17.9665C168.167 16.9336 167.659 16.0582 167.002 15.3404C166.346 14.6226 165.558 14.0755 164.639 13.6991C163.72 13.3139 162.704 13.1213 161.593 13.1213C160.49 13.1213 159.479 13.3139 158.56 13.6991C157.64 14.0755 156.848 14.6226 156.183 15.3404C155.526 16.0582 155.014 16.9336 154.647 17.9665C154.288 18.9995 154.108 20.1637 154.108 21.4593C154.108 22.7636 154.288 23.9322 154.647 24.9651C155.014 25.9893 155.526 26.8603 156.183 27.5781C156.848 28.2959 157.64 28.843 158.56 29.2194C159.479 29.5959 160.49 29.7841 161.593 29.7841C162.704 29.7841 163.72 29.5959 164.639 29.2194C165.558 28.843 166.346 28.2959 167.002 27.5781C167.659 26.8603 168.167 25.9893 168.526 24.9651C168.885 23.9322 169.064 22.7636 169.064 21.4593Z" fill="#0C293C"/>
</svg>
