<?xml version="1.0" encoding="UTF-8"?>
<svg width="154px" height="32px" viewBox="0 0 154 32" version="1.1" xmlns="http://www.w3.org/2000/svg" xmlns:xlink="http://www.w3.org/1999/xlink">
    <!-- Generator: Sketch 51.3 (57544) - http://www.bohemiancoding.com/sketch -->
    <title>Group 3</title>
    <desc>Created with Sketch.</desc>
    <defs>
        <circle id="path-1" cx="16" cy="16" r="15.3043478"></circle>
    </defs>
    <g id="Page-1" stroke="none" stroke-width="1" fill="none" fill-rule="evenodd">
        <g id="Group-3">
            <g id="noun_Earth_1605739">
                <g id="Group">
                    <g id="Group-2">
                        <mask id="mask-2" fill="white">
                            <use xlink:href="#path-1"></use>
                        </mask>
                        <use id="Oval" fill="#96CED9" fill-rule="nonzero" xlink:href="#path-1"></use>
                        <circle id="Oval" fill="#B1E4EE" fill-rule="nonzero" mask="url(#mask-2)" cx="14.5016722" cy="14.5016722" r="13.8060201"></circle>
                    </g>
                    <path d="M16,32 C7.17773913,32 0,24.8222609 0,16 C0,7.17773913 7.17773913,0 16,0 C24.8222609,0 32,7.17773913 32,16 C32,24.8222609 24.8222609,32 16,32 Z M16,1.39130435 C7.94504348,1.39130435 1.39130435,7.94434783 1.39130435,16 C1.39130435,24.0556522 7.94504348,30.6086957 16,30.6086957 C24.0549565,30.6086957 30.6086957,24.0556522 30.6086957,16 C30.6086957,7.94434783 24.0549565,1.39130435 16,1.39130435 Z" id="Shape" fill="#3C6B87" fill-rule="nonzero"></path>
                    <path d="M21.8998261,26.4584348 C21.7224348,26.4584348 21.586087,26.4445217 21.5074783,26.434087 C21.0768696,26.4194783 20.688,26.237913 20.3777391,25.9081739 C19.4907826,24.9613913 19.4045217,22.8201739 19.4441739,21.5172174 C18.4737391,21.3606957 17.5686957,20.8361739 16.8973913,20.0243478 C16.3074783,19.312 15.3815652,18.6761739 14.882087,18.3610435 C14.3401739,18.0187826 13.904,17.5373913 13.6194783,16.9697391 L12.8173913,15.3655652 C12.5933913,14.9168696 12.5057391,14.4201739 12.5641739,13.9283478 C12.7533913,12.3429565 13.5332174,10.4285217 14.1544348,9.10191304 C14.3631304,8.65669565 14.7965217,8.36521739 15.2869565,8.34017391 C15.7794783,8.31513043 16.2427826,8.56208696 16.4966957,8.98573913 L17.1874783,10.1370435 C17.3203478,10.3582609 17.5506087,10.4 17.7224348,10.3652174 C17.8177391,10.3457391 18.0438261,10.2706087 18.0813913,9.99373913 L18.0918261,9.91095652 C18.2483478,8.592 19.104,7.4706087 20.3241739,6.98295652 L21.9366957,6.33808696 C22.6372174,5.82886957 22.1676522,3.67791304 21.6173913,2.35617391 L21.154087,1.23826087 L22.7137391,1.47686957 C28.3547826,4.08973913 32,9.78991304 32,16 L32,16.3478261 L30.2010435,17.6966957 C29.7217391,18.0563478 29.1109565,18.1968696 28.5224348,18.0806957 C27.9353043,17.9652174 27.4212174,17.6048696 27.1130435,17.0914783 L26.7353043,16.4612174 L25.7391304,20.9467826 C25.7266087,23.1874783 25.1638261,24.7833043 24.066087,25.6904348 C23.277913,26.3415652 22.416,26.4584348 21.8998261,26.4584348 Z" id="Shape" fill="#3C6B87" fill-rule="nonzero"></path>
                    <path d="M13.4963478,31.8163478 L12.8681739,31.6918261 C6.94956522,30.5161739 2.11408696,25.9888696 0.548869565,20.1572174 L0.385391304,19.5471304 L4.31721739,18.0730435 C4.91756522,17.8490435 5.58956522,17.9325217 6.11617391,18.2963478 C6.64208696,18.6615652 6.95652174,19.2612174 6.95652174,19.901913 L6.95652174,20.9488696 C6.95652174,21.890087 7.51513043,22.7373913 8.37982609,23.1081739 L10.5252174,24.0278261 C11.1902609,24.3130435 11.7864348,24.7165217 12.2984348,25.2285217 L12.7193043,25.6493913 C13.9373913,26.8674783 14.4,28.6525217 13.9269565,30.3088696 L13.4963478,31.8163478 Z" id="Shape" fill="#3C6B87" fill-rule="nonzero"></path>
                    <path d="M0.717913043,15.8747826 C0.573217391,15.8747826 0.430608696,15.8302609 0.31026087,15.7426087 C0.118956522,15.6041739 0.0111304348,15.378087 0.0236521739,15.1422609 C0.304695652,9.81565217 3.216,4.99826087 7.81078261,2.2546087 C8.10782609,2.07652174 8.48973913,2.14469565 8.70747826,2.41321739 C9.37252174,3.23269565 9.73913043,4.25878261 9.73913043,5.30226087 L9.73913043,6.20730435 C9.73913043,7.17565217 9.36208696,8.08556522 8.67756522,8.7693913 L6.67269565,10.7742609 C6.48069565,10.9669565 6.4146087,11.2466087 6.50017391,11.5046957 C6.85217391,12.5606957 6.3186087,13.7113043 5.28486957,14.1252174 L0.96973913,15.8281739 C0.889043478,15.8587826 0.803478261,15.8747826 0.717913043,15.8747826 Z" id="Shape" fill="#3C6B87" fill-rule="nonzero"></path>
                </g>
            </g>
            <path d="M46.312,20.706 L47.258,20.706 C48.3433388,20.706 49.1206643,20.5666681 49.59,20.288 C50.0593357,20.0093319 50.294,19.5620031 50.294,18.946 C50.294,18.3299969 50.0593357,17.8826681 49.59,17.604 C49.1206643,17.3253319 48.3433388,17.186 47.258,17.186 L46.312,17.186 L46.312,20.706 Z M46.312,13.974 L47.104,13.974 C48.4533401,13.974 49.128,13.438672 49.128,12.368 C49.128,11.297328 48.4533401,10.762 47.104,10.762 L46.312,10.762 L46.312,13.974 Z M42,7.462 L48.424,7.462 C49.949341,7.462 51.107996,7.828663 51.9,8.562 C52.692004,9.295337 53.088,10.3513264 53.088,11.73 C53.088,12.5660042 52.9376682,13.2589973 52.637,13.809 C52.3363318,14.3590028 51.8780031,14.8246648 51.262,15.206 C51.8780031,15.3233339 52.4023312,15.5029988 52.835,15.745 C53.2676688,15.9870012 53.6196653,16.2839982 53.891,16.636 C54.1623347,16.9880018 54.3566661,17.3839978 54.474,17.824 C54.5913339,18.2640022 54.65,18.7333308 54.65,19.232 C54.65,20.0093372 54.5143347,20.6986637 54.243,21.3 C53.9716653,21.9013363 53.5903358,22.4073313 53.099,22.818 C52.6076642,23.2286687 52.0100035,23.5366656 51.306,23.742 C50.6019965,23.9473344 49.8100044,24.05 48.93,24.05 L42,24.05 L42,7.462 Z M68.62,13.006 C67.6226617,11.7886606 66.390674,11.18 64.924,11.18 C64.2786634,11.18 63.6810027,11.2973322 63.131,11.532 C62.5809972,11.7666678 62.108002,12.0856646 61.712,12.489 C61.315998,12.8923353 61.0043345,13.3726639 60.777,13.93 C60.5496655,14.4873361 60.436,15.0886634 60.436,15.734 C60.436,16.3940033 60.5496655,17.0026639 60.777,17.56 C61.0043345,18.1173361 61.3196646,18.6013313 61.723,19.012 C62.1263353,19.4226687 62.5993306,19.7453322 63.142,19.98 C63.6846694,20.2146678 64.2713302,20.332 64.902,20.332 C66.2806735,20.332 67.5199945,19.7453392 68.62,18.572 L68.62,23.676 L68.18,23.83 C67.5199967,24.0646678 66.9040028,24.2369994 66.332,24.347 C65.7599971,24.4570005 65.1953361,24.512 64.638,24.512 C63.4939943,24.512 62.3976719,24.2956688 61.349,23.863 C60.3003281,23.4303312 59.3763373,22.8216706 58.577,22.037 C57.7776627,21.2523294 57.1360024,20.3210054 56.652,19.243 C56.1679976,18.1649946 55.926,16.9880064 55.926,15.712 C55.926,14.4359936 56.1643309,13.2663386 56.641,12.203 C57.117669,11.1396613 57.7556627,10.2230038 58.555,9.453 C59.3543373,8.68299615 60.2819947,8.08166883 61.338,7.649 C62.3940053,7.21633117 63.5013275,7 64.66,7 C65.3200033,7 65.9689968,7.06966597 66.607,7.209 C67.2450032,7.34833403 67.9159965,7.5646652 68.62,7.858 L68.62,13.006 Z M74.802,15.756 C74.802,16.4160033 74.9266654,17.0246639 75.176,17.582 C75.4253346,18.1393361 75.7626645,18.6233313 76.188,19.034 C76.6133354,19.4446687 77.1083305,19.7636655 77.673,19.991 C78.2376695,20.2183345 78.8353302,20.332 79.466,20.332 C80.0966698,20.332 80.6943305,20.2183345 81.259,19.991 C81.8236695,19.7636655 82.3223311,19.4446687 82.755,19.034 C83.1876688,18.6233313 83.5286654,18.1393361 83.778,17.582 C84.0273346,17.0246639 84.152,16.4160033 84.152,15.756 C84.152,15.0959967 84.0273346,14.4873361 83.778,13.93 C83.5286654,13.3726639 83.1876688,12.8886687 82.755,12.478 C82.3223311,12.0673313 81.8236695,11.7483345 81.259,11.521 C80.6943305,11.2936655 80.0966698,11.18 79.466,11.18 C78.8353302,11.18 78.2376695,11.2936655 77.673,11.521 C77.1083305,11.7483345 76.6133354,12.0673313 76.188,12.478 C75.7626645,12.8886687 75.4253346,13.3726639 75.176,13.93 C74.9266654,14.4873361 74.802,15.0959967 74.802,15.756 Z M70.292,15.756 C70.292,14.5239938 70.519331,13.3763386 70.974,12.313 C71.4286689,11.2496613 72.0593293,10.322004 72.866,9.53 C73.6726707,8.73799604 74.6369944,8.11833557 75.759,7.671 C76.8810056,7.22366443 78.1166599,7 79.466,7 C80.8006733,7 82.032661,7.22366443 83.162,7.671 C84.291339,8.11833557 85.2629959,8.73799604 86.077,9.53 C86.891004,10.322004 87.525331,11.2496613 87.98,12.313 C88.4346689,13.3763386 88.662,14.5239938 88.662,15.756 C88.662,16.9880062 88.4346689,18.1356614 87.98,19.199 C87.525331,20.2623386 86.891004,21.189996 86.077,21.982 C85.2629959,22.774004 84.291339,23.3936644 83.162,23.841 C82.032661,24.2883356 80.8006733,24.512 79.466,24.512 C78.1166599,24.512 76.8810056,24.2883356 75.759,23.841 C74.6369944,23.3936644 73.6726707,22.774004 72.866,21.982 C72.0593293,21.189996 71.4286689,20.2623386 70.974,19.199 C70.519331,18.1356614 70.292,16.9880062 70.292,15.756 Z M89.102,16.504 L95.416,16.504 L95.416,19.826 L89.102,19.826 L89.102,16.504 Z M100.916,20.398 L101.906,20.398 C102.654004,20.398 103.32133,20.2806678 103.908,20.046 C104.49467,19.8113322 104.989665,19.4886687 105.393,19.078 C105.796335,18.6673313 106.104332,18.1796695 106.317,17.615 C106.529668,17.0503305 106.636,16.43067 106.636,15.756 C106.636,15.0959967 106.526001,14.4800029 106.306,13.908 C106.085999,13.3359971 105.774335,12.8446687 105.371,12.434 C104.967665,12.0233313 104.47267,11.7006678 103.886,11.466 C103.29933,11.2313322 102.639337,11.114 101.906,11.114 L100.916,11.114 L100.916,20.398 Z M96.604,7.462 L102.984,7.462 C104.113339,7.462 105.172995,7.68933106 106.163,8.144 C107.153005,8.59866894 108.01833,9.20366289 108.759,9.959 C109.49967,10.7143371 110.082664,11.5943283 110.508,12.599 C110.933335,13.6036717 111.146,14.6559945 111.146,15.756 C111.146,16.8413388 110.937002,17.8863283 110.519,18.891 C110.100998,19.8956717 109.52167,20.7793295 108.781,21.542 C108.04033,22.3046705 107.175005,22.9133311 106.185,23.368 C105.194995,23.8226689 104.128006,24.05 102.984,24.05 L96.604,24.05 L96.604,7.462 Z M112.598,24.05 L115.414,7.462 L119.682,7.462 L123.004,16.306 L126.304,7.462 L130.572,7.462 L133.388,24.05 L129.098,24.05 L127.668,14.502 L123.752,24.05 L122.036,24.05 L118.318,14.502 L116.888,24.05 L112.598,24.05 Z M139.328,15.756 C139.328,16.4160033 139.452665,17.0246639 139.702,17.582 C139.951335,18.1393361 140.288664,18.6233313 140.714,19.034 C141.139335,19.4446687 141.63433,19.7636655 142.199,19.991 C142.763669,20.2183345 143.36133,20.332 143.992,20.332 C144.62267,20.332 145.22033,20.2183345 145.785,19.991 C146.349669,19.7636655 146.848331,19.4446687 147.281,19.034 C147.713669,18.6233313 148.054665,18.1393361 148.304,17.582 C148.553335,17.0246639 148.678,16.4160033 148.678,15.756 C148.678,15.0959967 148.553335,14.4873361 148.304,13.93 C148.054665,13.3726639 147.713669,12.8886687 147.281,12.478 C146.848331,12.0673313 146.349669,11.7483345 145.785,11.521 C145.22033,11.2936655 144.62267,11.18 143.992,11.18 C143.36133,11.18 142.763669,11.2936655 142.199,11.521 C141.63433,11.7483345 141.139335,12.0673313 140.714,12.478 C140.288664,12.8886687 139.951335,13.3726639 139.702,13.93 C139.452665,14.4873361 139.328,15.0959967 139.328,15.756 Z M134.818,15.756 C134.818,14.5239938 135.045331,13.3763386 135.5,12.313 C135.954669,11.2496613 136.585329,10.322004 137.392,9.53 C138.198671,8.73799604 139.162994,8.11833557 140.285,7.671 C141.407006,7.22366443 142.64266,7 143.992,7 C145.326673,7 146.558661,7.22366443 147.688,7.671 C148.817339,8.11833557 149.788996,8.73799604 150.603,9.53 C151.417004,10.322004 152.051331,11.2496613 152.506,12.313 C152.960669,13.3763386 153.188,14.5239938 153.188,15.756 C153.188,16.9880062 152.960669,18.1356614 152.506,19.199 C152.051331,20.2623386 151.417004,21.189996 150.603,21.982 C149.788996,22.774004 148.817339,23.3936644 147.688,23.841 C146.558661,24.2883356 145.326673,24.512 143.992,24.512 C142.64266,24.512 141.407006,24.2883356 140.285,23.841 C139.162994,23.3936644 138.198671,22.774004 137.392,21.982 C136.585329,21.189996 135.954669,20.2623386 135.5,19.199 C135.045331,18.1356614 134.818,16.9880062 134.818,15.756 Z" id="BCO-DMO" fill="#FFFFFF"></path>
        </g>
    </g>
</svg>