<svg width="91" height="90" viewBox="0 0 91 90" fill="none" xmlns="http://www.w3.org/2000/svg">
<circle opacity="0.2" cx="45.8257" cy="45" r="45" fill="#EFFBFF"/>
<g clip-path="url(#clip0)">
<path d="M16.9266 68.1189V77.2015L39.2202 68.1189H66.4679L69.7706 62.752V18.9905L66.4679 14.4492H7.84402L3.30273 18.9905V62.752L5.36695 66.0547L16.9266 68.1189Z" fill="white"/>
<path d="M8.41144 12.3853H64.4281C68.9023 12.3853 72.6606 16.1517 72.6606 20.815V61.708C72.6606 66.3713 68.9023 70.1378 64.4281 70.1378H40.8044L16.8229 81.2578C15.3912 81.9752 13.6015 80.7197 13.6015 79.1055V70.1378H8.41144C3.7583 70.1378 0 66.3713 0 61.708V20.815C0 16.1517 3.7583 12.3853 8.41144 12.3853ZM64.4281 16.8691H8.41144C6.26384 16.8691 4.47417 18.6627 4.47417 20.815V61.708C4.47417 63.8603 6.26384 65.4745 8.41144 65.4745H15.9281C17.1808 65.4745 18.2546 66.5506 18.2546 67.8061V75.6978L39.1937 65.8332C39.5517 65.6539 39.9096 65.4745 40.2675 65.4745H64.4281C66.5757 65.4745 68.1864 63.8603 68.1864 61.708V20.815C68.1864 18.6627 66.5757 16.8691 64.4281 16.8691Z" fill="#B1E4EE"/>
<path d="M28.9927 34.0875C28.9927 35.343 27.9189 36.4191 26.6662 36.4191C25.4134 36.4191 24.5186 35.343 24.5186 34.0875C24.5186 27.6307 29.8876 22.25 36.3304 22.25C42.9521 22.25 48.3212 27.6307 48.3212 34.0875C48.3212 39.6475 44.3839 44.4901 39.0149 45.7456V48.6153C39.0149 49.8708 37.9411 50.7675 36.6883 50.7675C35.4355 50.7675 34.3617 49.8708 34.3617 48.6153V43.7727C34.3617 42.5172 35.4355 41.6204 36.6883 41.441C40.6256 41.441 43.668 38.0333 43.668 34.0875C43.668 29.9623 40.4466 26.7339 36.3304 26.7339C32.2141 26.7339 28.9927 29.9623 28.9927 34.0875Z" fill="#4CA6B8"/>
<path fill-rule="evenodd" clip-rule="evenodd" d="M36.6882 52.561C38.1199 52.561 39.3727 53.8165 39.3727 55.2514C39.3727 56.8656 38.1199 57.9417 36.6882 57.9417C35.2564 57.9417 34.0037 56.8656 34.0037 55.2514C34.0037 53.8165 35.2564 52.561 36.6882 52.561Z" fill="#4CA6B8"/>
</g>
<defs>
<clipPath id="clip0">
<rect y="12.3853" width="72.6606" height="72.6606" fill="white"/>
</clipPath>
</defs>
</svg>
